G04 #@! TF.FileFunction,Copper,L2,Bot,Signal*
%FSLAX46Y46*%
G04 Gerber Fmt 4.6, Leading zero omitted, Abs format (unit mm)*
G04 Created by KiCad (PCBNEW 4.0.7-e2-6376~58~ubuntu16.04.1) date Tue Nov 20 12:23:16 2018*
%MOMM*%
%LPD*%
G01*
G04 APERTURE LIST*
%ADD10C,0.100000*%
%ADD11C,0.300000*%
%ADD12C,0.150000*%
%ADD13C,3.810000*%
%ADD14R,1.520000X1.520000*%
%ADD15C,1.520000*%
%ADD16R,2.000000X1.524000*%
%ADD17O,2.000000X1.524000*%
%ADD18C,1.000000*%
%ADD19C,0.508000*%
%ADD20C,0.304800*%
%ADD21C,0.355600*%
%ADD22C,0.254000*%
G04 APERTURE END LIST*
D10*
D11*
X106928572Y-133378571D02*
X106571429Y-133378571D01*
X106571429Y-131235714D01*
X106928572Y-131235714D01*
X109714286Y-131521429D02*
X109785715Y-131450000D01*
X109928572Y-131378571D01*
X110285715Y-131378571D01*
X110428572Y-131450000D01*
X110500001Y-131521429D01*
X110571429Y-131664286D01*
X110571429Y-131807143D01*
X110500001Y-132021429D01*
X109642858Y-132878571D01*
X110571429Y-132878571D01*
X111071429Y-133378571D02*
X111428572Y-133378571D01*
X111428572Y-131235714D01*
X111071429Y-131235714D01*
D12*
X151500000Y-133950000D02*
X65800000Y-133950000D01*
X65800000Y-133950000D02*
X65800000Y-54395000D01*
X151500000Y-54395000D02*
X151500000Y-133950000D01*
X65800000Y-54395000D02*
X151500000Y-54395000D01*
D13*
X117510000Y-122850000D03*
X142910000Y-122850000D03*
D14*
X124750000Y-120310000D03*
D15*
X127540000Y-120310000D03*
X130340000Y-120310000D03*
X133000000Y-120310000D03*
X135800000Y-120310000D03*
X134400000Y-122850000D03*
X131610000Y-122850000D03*
X128940000Y-122850000D03*
X126150000Y-122850000D03*
D13*
X74050000Y-122850000D03*
X99450000Y-122850000D03*
D14*
X81290000Y-120310000D03*
D15*
X84080000Y-120310000D03*
X86880000Y-120310000D03*
X89540000Y-120310000D03*
X92340000Y-120310000D03*
X90940000Y-122850000D03*
X88150000Y-122850000D03*
X85480000Y-122850000D03*
X82690000Y-122850000D03*
D16*
X143520000Y-60210000D03*
D17*
X146060000Y-60210000D03*
X143520000Y-72910000D03*
X146060000Y-62750000D03*
X143520000Y-75450000D03*
X146060000Y-65290000D03*
X143520000Y-77990000D03*
X146060000Y-67830000D03*
X143520000Y-80530000D03*
X146060000Y-70370000D03*
X143520000Y-83070000D03*
X146060000Y-72910000D03*
X143520000Y-85610000D03*
X146060000Y-75450000D03*
X143520000Y-88150000D03*
X146060000Y-77990000D03*
X143520000Y-90690000D03*
X146060000Y-80530000D03*
X143520000Y-93230000D03*
X146060000Y-83070000D03*
X143520000Y-95770000D03*
X146060000Y-85610000D03*
X143520000Y-98310000D03*
X146060000Y-88150000D03*
X146060000Y-90690000D03*
X143520000Y-100850000D03*
X146060000Y-93230000D03*
X146060000Y-98310000D03*
X146060000Y-100850000D03*
X146060000Y-103390000D03*
X146060000Y-105930000D03*
X143520000Y-103390000D03*
X143520000Y-105930000D03*
X143520000Y-62750000D03*
X143520000Y-65290000D03*
X143520000Y-67830000D03*
X143520000Y-70370000D03*
X143520000Y-108470000D03*
X146060000Y-108470000D03*
X146060000Y-95770000D03*
D16*
X72400000Y-60210000D03*
D17*
X74940000Y-60210000D03*
X72400000Y-62750000D03*
X74940000Y-62750000D03*
X72400000Y-65290000D03*
X74940000Y-65290000D03*
X72400000Y-67830000D03*
X74940000Y-67830000D03*
X72400000Y-70370000D03*
X74940000Y-70370000D03*
X72400000Y-72910000D03*
X74940000Y-72910000D03*
X72400000Y-75450000D03*
X74940000Y-75450000D03*
X72400000Y-77990000D03*
X74940000Y-77990000D03*
X72400000Y-80530000D03*
X74940000Y-80530000D03*
X72400000Y-83070000D03*
X74940000Y-83070000D03*
X72400000Y-85610000D03*
X74940000Y-85610000D03*
X72400000Y-88150000D03*
X74940000Y-88150000D03*
X72400000Y-90690000D03*
X74940000Y-90690000D03*
X72400000Y-93230000D03*
X74940000Y-93230000D03*
X72400000Y-95770000D03*
X74940000Y-95770000D03*
X72400000Y-98310000D03*
X74940000Y-98310000D03*
X72400000Y-100850000D03*
X74940000Y-100850000D03*
X72400000Y-103390000D03*
X74940000Y-103390000D03*
X72400000Y-105930000D03*
X74940000Y-105930000D03*
X72400000Y-108470000D03*
X74940000Y-108470000D03*
D18*
X130992884Y-83300000D03*
X124227000Y-89250000D03*
X122973000Y-89250000D03*
X93927000Y-89250000D03*
X92673000Y-89250000D03*
X86500000Y-83450000D03*
D19*
X130992884Y-83300000D02*
X131912387Y-82380497D01*
X131912387Y-82380497D02*
X131912387Y-82367461D01*
X131912387Y-82367461D02*
X131912387Y-60364552D01*
X131912387Y-60364552D02*
X134926939Y-57350000D01*
X134926939Y-57350000D02*
X145037007Y-57350000D01*
X145037007Y-57350000D02*
X146044650Y-58357643D01*
X146044650Y-58357643D02*
X146044650Y-60222851D01*
D20*
X128940000Y-122850000D02*
X128940000Y-119260000D01*
X128940000Y-119260000D02*
X128930000Y-119250000D01*
X128930000Y-119250000D02*
X128930000Y-104284870D01*
X128930000Y-104284870D02*
X123879399Y-99234269D01*
X123879399Y-99234269D02*
X123879399Y-89597601D01*
X123879399Y-89597601D02*
X124227000Y-89250000D01*
X128345790Y-118405344D02*
X128345790Y-116068799D01*
D21*
X127540000Y-120310000D02*
X127540000Y-119211134D01*
D20*
X127540000Y-119211134D02*
X128345790Y-118405344D01*
X128345790Y-116068799D02*
X128371201Y-104516331D01*
X123320601Y-99465727D02*
X123320601Y-89597601D01*
X128371201Y-104516331D02*
X123320601Y-99465727D01*
X123320601Y-89597601D02*
X122973000Y-89250000D01*
X93579399Y-105265729D02*
X85547961Y-113333090D01*
X85547961Y-113333090D02*
X85530000Y-113315130D01*
D21*
X85480000Y-122850000D02*
X85480000Y-113401051D01*
X85480000Y-113401051D02*
X85547961Y-113333090D01*
D20*
X93927000Y-89250000D02*
X93579399Y-89597601D01*
X93579399Y-89597601D02*
X93579399Y-105265729D01*
D21*
X84080000Y-120310000D02*
X84609036Y-119780964D01*
X84609036Y-119780964D02*
X84609036Y-113409897D01*
X84609036Y-113409897D02*
X85186901Y-112832032D01*
D20*
X93020601Y-105034269D02*
X85186901Y-112832032D01*
X85186901Y-112832032D02*
X84971201Y-113083669D01*
X92673000Y-89250000D02*
X93020601Y-89597601D01*
X93020601Y-89597601D02*
X93020601Y-105034269D01*
D19*
X74940000Y-60210000D02*
X83493657Y-60210000D01*
X83493657Y-60210000D02*
X85497097Y-62213440D01*
X85497097Y-62213440D02*
X85497097Y-82447097D01*
X85497097Y-82447097D02*
X86500000Y-83450000D01*
D22*
G36*
X151094800Y-133544800D02*
X112187343Y-133544800D01*
X112187343Y-130669800D01*
X105812658Y-130669800D01*
X105812658Y-133544800D01*
X66205200Y-133544800D01*
X66205200Y-123301926D01*
X71767605Y-123301926D01*
X72114287Y-124140960D01*
X72755663Y-124783457D01*
X73594091Y-125131603D01*
X74501926Y-125132395D01*
X75340960Y-124785713D01*
X75983457Y-124144337D01*
X76331603Y-123305909D01*
X76331804Y-123075171D01*
X81552803Y-123075171D01*
X81725536Y-123493217D01*
X82045100Y-123813340D01*
X82462845Y-123986802D01*
X82915171Y-123987197D01*
X83333217Y-123814464D01*
X83653340Y-123494900D01*
X83826802Y-123077155D01*
X83827197Y-122624829D01*
X83654464Y-122206783D01*
X83334900Y-121886660D01*
X82917155Y-121713198D01*
X82464829Y-121712803D01*
X82046783Y-121885536D01*
X81726660Y-122205100D01*
X81553198Y-122622845D01*
X81552803Y-123075171D01*
X76331804Y-123075171D01*
X76332395Y-122398074D01*
X75985713Y-121559040D01*
X75344337Y-120916543D01*
X74505909Y-120568397D01*
X73598074Y-120567605D01*
X72759040Y-120914287D01*
X72116543Y-121555663D01*
X71768397Y-122394091D01*
X71767605Y-123301926D01*
X66205200Y-123301926D01*
X66205200Y-119550000D01*
X80145615Y-119550000D01*
X80145615Y-121070000D01*
X80171903Y-121209708D01*
X80254470Y-121338020D01*
X80380453Y-121424101D01*
X80530000Y-121454385D01*
X82050000Y-121454385D01*
X82189708Y-121428097D01*
X82318020Y-121345530D01*
X82404101Y-121219547D01*
X82434385Y-121070000D01*
X82434385Y-120535171D01*
X82942803Y-120535171D01*
X83115536Y-120953217D01*
X83435100Y-121273340D01*
X83852845Y-121446802D01*
X84305171Y-121447197D01*
X84723217Y-121274464D01*
X84925200Y-121072834D01*
X84925200Y-121849003D01*
X84836783Y-121885536D01*
X84516660Y-122205100D01*
X84343198Y-122622845D01*
X84342803Y-123075171D01*
X84515536Y-123493217D01*
X84835100Y-123813340D01*
X85252845Y-123986802D01*
X85705171Y-123987197D01*
X86123217Y-123814464D01*
X86443340Y-123494900D01*
X86616802Y-123077155D01*
X86616803Y-123075171D01*
X87012803Y-123075171D01*
X87185536Y-123493217D01*
X87505100Y-123813340D01*
X87922845Y-123986802D01*
X88375171Y-123987197D01*
X88793217Y-123814464D01*
X89113340Y-123494900D01*
X89286802Y-123077155D01*
X89286803Y-123075171D01*
X89802803Y-123075171D01*
X89975536Y-123493217D01*
X90295100Y-123813340D01*
X90712845Y-123986802D01*
X91165171Y-123987197D01*
X91583217Y-123814464D01*
X91903340Y-123494900D01*
X91983469Y-123301926D01*
X97167605Y-123301926D01*
X97514287Y-124140960D01*
X98155663Y-124783457D01*
X98994091Y-125131603D01*
X99901926Y-125132395D01*
X100740960Y-124785713D01*
X101383457Y-124144337D01*
X101731603Y-123305909D01*
X101731606Y-123301926D01*
X115227605Y-123301926D01*
X115574287Y-124140960D01*
X116215663Y-124783457D01*
X117054091Y-125131603D01*
X117961926Y-125132395D01*
X118800960Y-124785713D01*
X119443457Y-124144337D01*
X119791603Y-123305909D01*
X119791804Y-123075171D01*
X125012803Y-123075171D01*
X125185536Y-123493217D01*
X125505100Y-123813340D01*
X125922845Y-123986802D01*
X126375171Y-123987197D01*
X126793217Y-123814464D01*
X127113340Y-123494900D01*
X127286802Y-123077155D01*
X127287197Y-122624829D01*
X127114464Y-122206783D01*
X126794900Y-121886660D01*
X126377155Y-121713198D01*
X125924829Y-121712803D01*
X125506783Y-121885536D01*
X125186660Y-122205100D01*
X125013198Y-122622845D01*
X125012803Y-123075171D01*
X119791804Y-123075171D01*
X119792395Y-122398074D01*
X119445713Y-121559040D01*
X118804337Y-120916543D01*
X117965909Y-120568397D01*
X117058074Y-120567605D01*
X116219040Y-120914287D01*
X115576543Y-121555663D01*
X115228397Y-122394091D01*
X115227605Y-123301926D01*
X101731606Y-123301926D01*
X101732395Y-122398074D01*
X101385713Y-121559040D01*
X100744337Y-120916543D01*
X99905909Y-120568397D01*
X98998074Y-120567605D01*
X98159040Y-120914287D01*
X97516543Y-121555663D01*
X97168397Y-122394091D01*
X97167605Y-123301926D01*
X91983469Y-123301926D01*
X92076802Y-123077155D01*
X92077197Y-122624829D01*
X91904464Y-122206783D01*
X91584900Y-121886660D01*
X91167155Y-121713198D01*
X90714829Y-121712803D01*
X90296783Y-121885536D01*
X89976660Y-122205100D01*
X89803198Y-122622845D01*
X89802803Y-123075171D01*
X89286803Y-123075171D01*
X89287197Y-122624829D01*
X89114464Y-122206783D01*
X88794900Y-121886660D01*
X88377155Y-121713198D01*
X87924829Y-121712803D01*
X87506783Y-121885536D01*
X87186660Y-122205100D01*
X87013198Y-122622845D01*
X87012803Y-123075171D01*
X86616803Y-123075171D01*
X86617197Y-122624829D01*
X86444464Y-122206783D01*
X86124900Y-121886660D01*
X86034800Y-121849247D01*
X86034800Y-121334808D01*
X86080842Y-121288766D01*
X86150059Y-121530742D01*
X86672780Y-121717155D01*
X87227049Y-121689341D01*
X87609941Y-121530742D01*
X87679159Y-121288764D01*
X86880000Y-120489605D01*
X86865858Y-120503748D01*
X86686253Y-120324143D01*
X86700395Y-120310000D01*
X87059605Y-120310000D01*
X87858764Y-121109159D01*
X88100742Y-121039941D01*
X88280753Y-120535171D01*
X88402803Y-120535171D01*
X88575536Y-120953217D01*
X88895100Y-121273340D01*
X89312845Y-121446802D01*
X89765171Y-121447197D01*
X90183217Y-121274464D01*
X90503340Y-120954900D01*
X90676802Y-120537155D01*
X90676803Y-120535171D01*
X91202803Y-120535171D01*
X91375536Y-120953217D01*
X91695100Y-121273340D01*
X92112845Y-121446802D01*
X92565171Y-121447197D01*
X92983217Y-121274464D01*
X93303340Y-120954900D01*
X93476802Y-120537155D01*
X93477197Y-120084829D01*
X93304464Y-119666783D01*
X93187885Y-119550000D01*
X123605615Y-119550000D01*
X123605615Y-121070000D01*
X123631903Y-121209708D01*
X123714470Y-121338020D01*
X123840453Y-121424101D01*
X123990000Y-121454385D01*
X125510000Y-121454385D01*
X125649708Y-121428097D01*
X125778020Y-121345530D01*
X125864101Y-121219547D01*
X125894385Y-121070000D01*
X125894385Y-119550000D01*
X125868097Y-119410292D01*
X125785530Y-119281980D01*
X125659547Y-119195899D01*
X125510000Y-119165615D01*
X123990000Y-119165615D01*
X123850292Y-119191903D01*
X123721980Y-119274470D01*
X123635899Y-119400453D01*
X123605615Y-119550000D01*
X93187885Y-119550000D01*
X92984900Y-119346660D01*
X92567155Y-119173198D01*
X92114829Y-119172803D01*
X91696783Y-119345536D01*
X91376660Y-119665100D01*
X91203198Y-120082845D01*
X91202803Y-120535171D01*
X90676803Y-120535171D01*
X90677197Y-120084829D01*
X90504464Y-119666783D01*
X90184900Y-119346660D01*
X89767155Y-119173198D01*
X89314829Y-119172803D01*
X88896783Y-119345536D01*
X88576660Y-119665100D01*
X88403198Y-120082845D01*
X88402803Y-120535171D01*
X88280753Y-120535171D01*
X88287155Y-120517220D01*
X88259341Y-119962951D01*
X88100742Y-119580059D01*
X87858764Y-119510841D01*
X87059605Y-120310000D01*
X86700395Y-120310000D01*
X86686253Y-120295858D01*
X86865858Y-120116253D01*
X86880000Y-120130395D01*
X87679159Y-119331236D01*
X87609941Y-119089258D01*
X87087220Y-118902845D01*
X86532951Y-118930659D01*
X86150059Y-119089258D01*
X86080842Y-119331234D01*
X86034800Y-119285192D01*
X86034800Y-113594435D01*
X93954576Y-105639235D01*
X94011531Y-105553583D01*
X94068501Y-105468322D01*
X94068618Y-105467732D01*
X94068952Y-105467230D01*
X94088742Y-105366562D01*
X94108799Y-105265729D01*
X94108799Y-90123797D01*
X94423131Y-89993918D01*
X94670051Y-89747429D01*
X94803847Y-89425211D01*
X94803848Y-89423681D01*
X122095849Y-89423681D01*
X122229082Y-89746131D01*
X122475571Y-89993051D01*
X122791201Y-90124111D01*
X122791201Y-99465727D01*
X122831499Y-99668320D01*
X122946259Y-99840069D01*
X127841318Y-104735132D01*
X127816391Y-116067635D01*
X127816506Y-116068218D01*
X127816390Y-116068799D01*
X127816390Y-118186060D01*
X127255953Y-118746497D01*
X127147697Y-118818831D01*
X127027432Y-118998821D01*
X126985200Y-119211134D01*
X126985200Y-119309003D01*
X126896783Y-119345536D01*
X126576660Y-119665100D01*
X126403198Y-120082845D01*
X126402803Y-120535171D01*
X126575536Y-120953217D01*
X126895100Y-121273340D01*
X127312845Y-121446802D01*
X127765171Y-121447197D01*
X128183217Y-121274464D01*
X128410600Y-121047478D01*
X128410600Y-121838508D01*
X128296783Y-121885536D01*
X127976660Y-122205100D01*
X127803198Y-122622845D01*
X127802803Y-123075171D01*
X127975536Y-123493217D01*
X128295100Y-123813340D01*
X128712845Y-123986802D01*
X129165171Y-123987197D01*
X129583217Y-123814464D01*
X129903340Y-123494900D01*
X130076802Y-123077155D01*
X130076803Y-123075171D01*
X130472803Y-123075171D01*
X130645536Y-123493217D01*
X130965100Y-123813340D01*
X131382845Y-123986802D01*
X131835171Y-123987197D01*
X132253217Y-123814464D01*
X132573340Y-123494900D01*
X132746802Y-123077155D01*
X132746803Y-123075171D01*
X133262803Y-123075171D01*
X133435536Y-123493217D01*
X133755100Y-123813340D01*
X134172845Y-123986802D01*
X134625171Y-123987197D01*
X135043217Y-123814464D01*
X135363340Y-123494900D01*
X135443469Y-123301926D01*
X140627605Y-123301926D01*
X140974287Y-124140960D01*
X141615663Y-124783457D01*
X142454091Y-125131603D01*
X143361926Y-125132395D01*
X144200960Y-124785713D01*
X144843457Y-124144337D01*
X145191603Y-123305909D01*
X145192395Y-122398074D01*
X144845713Y-121559040D01*
X144204337Y-120916543D01*
X143365909Y-120568397D01*
X142458074Y-120567605D01*
X141619040Y-120914287D01*
X140976543Y-121555663D01*
X140628397Y-122394091D01*
X140627605Y-123301926D01*
X135443469Y-123301926D01*
X135536802Y-123077155D01*
X135537197Y-122624829D01*
X135364464Y-122206783D01*
X135044900Y-121886660D01*
X134627155Y-121713198D01*
X134174829Y-121712803D01*
X133756783Y-121885536D01*
X133436660Y-122205100D01*
X133263198Y-122622845D01*
X133262803Y-123075171D01*
X132746803Y-123075171D01*
X132747197Y-122624829D01*
X132574464Y-122206783D01*
X132254900Y-121886660D01*
X131837155Y-121713198D01*
X131384829Y-121712803D01*
X130966783Y-121885536D01*
X130646660Y-122205100D01*
X130473198Y-122622845D01*
X130472803Y-123075171D01*
X130076803Y-123075171D01*
X130077197Y-122624829D01*
X129904464Y-122206783D01*
X129584900Y-121886660D01*
X129469400Y-121838700D01*
X129469400Y-121360208D01*
X129540842Y-121288766D01*
X129610059Y-121530742D01*
X130132780Y-121717155D01*
X130687049Y-121689341D01*
X131069941Y-121530742D01*
X131139159Y-121288764D01*
X130340000Y-120489605D01*
X130325858Y-120503748D01*
X130146253Y-120324143D01*
X130160395Y-120310000D01*
X130519605Y-120310000D01*
X131318764Y-121109159D01*
X131560742Y-121039941D01*
X131740753Y-120535171D01*
X131862803Y-120535171D01*
X132035536Y-120953217D01*
X132355100Y-121273340D01*
X132772845Y-121446802D01*
X133225171Y-121447197D01*
X133643217Y-121274464D01*
X133963340Y-120954900D01*
X134136802Y-120537155D01*
X134136803Y-120535171D01*
X134662803Y-120535171D01*
X134835536Y-120953217D01*
X135155100Y-121273340D01*
X135572845Y-121446802D01*
X136025171Y-121447197D01*
X136443217Y-121274464D01*
X136763340Y-120954900D01*
X136936802Y-120537155D01*
X136937197Y-120084829D01*
X136764464Y-119666783D01*
X136444900Y-119346660D01*
X136027155Y-119173198D01*
X135574829Y-119172803D01*
X135156783Y-119345536D01*
X134836660Y-119665100D01*
X134663198Y-120082845D01*
X134662803Y-120535171D01*
X134136803Y-120535171D01*
X134137197Y-120084829D01*
X133964464Y-119666783D01*
X133644900Y-119346660D01*
X133227155Y-119173198D01*
X132774829Y-119172803D01*
X132356783Y-119345536D01*
X132036660Y-119665100D01*
X131863198Y-120082845D01*
X131862803Y-120535171D01*
X131740753Y-120535171D01*
X131747155Y-120517220D01*
X131719341Y-119962951D01*
X131560742Y-119580059D01*
X131318764Y-119510841D01*
X130519605Y-120310000D01*
X130160395Y-120310000D01*
X130146253Y-120295858D01*
X130325858Y-120116253D01*
X130340000Y-120130395D01*
X131139159Y-119331236D01*
X131069941Y-119089258D01*
X130547220Y-118902845D01*
X129992951Y-118930659D01*
X129610059Y-119089258D01*
X129540842Y-119331234D01*
X129469348Y-119259740D01*
X129459400Y-119209726D01*
X129459400Y-105930000D01*
X142116023Y-105930000D01*
X142202724Y-106365876D01*
X142449628Y-106735395D01*
X142819147Y-106982299D01*
X143255023Y-107069000D01*
X143784977Y-107069000D01*
X144220853Y-106982299D01*
X144590372Y-106735395D01*
X144645716Y-106652567D01*
X144752980Y-106843892D01*
X145184086Y-107183422D01*
X145242972Y-107200000D01*
X145184086Y-107216578D01*
X144752980Y-107556108D01*
X144645716Y-107747433D01*
X144590372Y-107664605D01*
X144220853Y-107417701D01*
X143784977Y-107331000D01*
X143255023Y-107331000D01*
X142819147Y-107417701D01*
X142449628Y-107664605D01*
X142202724Y-108034124D01*
X142116023Y-108470000D01*
X142202724Y-108905876D01*
X142449628Y-109275395D01*
X142819147Y-109522299D01*
X143255023Y-109609000D01*
X143784977Y-109609000D01*
X144220853Y-109522299D01*
X144590372Y-109275395D01*
X144645716Y-109192567D01*
X144752980Y-109383892D01*
X145184086Y-109723422D01*
X145712308Y-109872130D01*
X145933000Y-109713277D01*
X145933000Y-108597000D01*
X146187000Y-108597000D01*
X146187000Y-109713277D01*
X146407692Y-109872130D01*
X146935914Y-109723422D01*
X147367020Y-109383892D01*
X147635377Y-108905230D01*
X147652220Y-108813070D01*
X147529720Y-108597000D01*
X146187000Y-108597000D01*
X145933000Y-108597000D01*
X145913000Y-108597000D01*
X145913000Y-108343000D01*
X145933000Y-108343000D01*
X145933000Y-107226723D01*
X145895874Y-107200000D01*
X145933000Y-107173277D01*
X145933000Y-106057000D01*
X146187000Y-106057000D01*
X146187000Y-107173277D01*
X146224126Y-107200000D01*
X146187000Y-107226723D01*
X146187000Y-108343000D01*
X147529720Y-108343000D01*
X147652220Y-108126930D01*
X147635377Y-108034770D01*
X147367020Y-107556108D01*
X146935914Y-107216578D01*
X146877028Y-107200000D01*
X146935914Y-107183422D01*
X147367020Y-106843892D01*
X147635377Y-106365230D01*
X147652220Y-106273070D01*
X147529720Y-106057000D01*
X146187000Y-106057000D01*
X145933000Y-106057000D01*
X145913000Y-106057000D01*
X145913000Y-105803000D01*
X145933000Y-105803000D01*
X145933000Y-104686723D01*
X146187000Y-104686723D01*
X146187000Y-105803000D01*
X147529720Y-105803000D01*
X147652220Y-105586930D01*
X147635377Y-105494770D01*
X147367020Y-105016108D01*
X146935914Y-104676578D01*
X146407692Y-104527870D01*
X146187000Y-104686723D01*
X145933000Y-104686723D01*
X145712308Y-104527870D01*
X145184086Y-104676578D01*
X144752980Y-105016108D01*
X144645716Y-105207433D01*
X144590372Y-105124605D01*
X144220853Y-104877701D01*
X143784977Y-104791000D01*
X143255023Y-104791000D01*
X142819147Y-104877701D01*
X142449628Y-105124605D01*
X142202724Y-105494124D01*
X142116023Y-105930000D01*
X129459400Y-105930000D01*
X129459400Y-104284870D01*
X129419102Y-104082277D01*
X129304342Y-103910527D01*
X128783815Y-103390000D01*
X142116023Y-103390000D01*
X142202724Y-103825876D01*
X142449628Y-104195395D01*
X142819147Y-104442299D01*
X143255023Y-104529000D01*
X143784977Y-104529000D01*
X144220853Y-104442299D01*
X144590372Y-104195395D01*
X144790000Y-103896630D01*
X144989628Y-104195395D01*
X145359147Y-104442299D01*
X145795023Y-104529000D01*
X146324977Y-104529000D01*
X146760853Y-104442299D01*
X147130372Y-104195395D01*
X147377276Y-103825876D01*
X147463977Y-103390000D01*
X147377276Y-102954124D01*
X147130372Y-102584605D01*
X146760853Y-102337701D01*
X146324977Y-102251000D01*
X145795023Y-102251000D01*
X145359147Y-102337701D01*
X144989628Y-102584605D01*
X144790000Y-102883370D01*
X144590372Y-102584605D01*
X144220853Y-102337701D01*
X143784977Y-102251000D01*
X143255023Y-102251000D01*
X142819147Y-102337701D01*
X142449628Y-102584605D01*
X142202724Y-102954124D01*
X142116023Y-103390000D01*
X128783815Y-103390000D01*
X126243815Y-100850000D01*
X142116023Y-100850000D01*
X142202724Y-101285876D01*
X142449628Y-101655395D01*
X142819147Y-101902299D01*
X143255023Y-101989000D01*
X143784977Y-101989000D01*
X144220853Y-101902299D01*
X144590372Y-101655395D01*
X144790000Y-101356630D01*
X144989628Y-101655395D01*
X145359147Y-101902299D01*
X145795023Y-101989000D01*
X146324977Y-101989000D01*
X146760853Y-101902299D01*
X147130372Y-101655395D01*
X147377276Y-101285876D01*
X147463977Y-100850000D01*
X147377276Y-100414124D01*
X147130372Y-100044605D01*
X146760853Y-99797701D01*
X146324977Y-99711000D01*
X145795023Y-99711000D01*
X145359147Y-99797701D01*
X144989628Y-100044605D01*
X144790000Y-100343370D01*
X144590372Y-100044605D01*
X144220853Y-99797701D01*
X143784977Y-99711000D01*
X143255023Y-99711000D01*
X142819147Y-99797701D01*
X142449628Y-100044605D01*
X142202724Y-100414124D01*
X142116023Y-100850000D01*
X126243815Y-100850000D01*
X124408799Y-99014985D01*
X124408799Y-90123797D01*
X124723131Y-89993918D01*
X124970051Y-89747429D01*
X125103847Y-89425211D01*
X125104151Y-89076319D01*
X124970918Y-88753869D01*
X124724429Y-88506949D01*
X124402211Y-88373153D01*
X124053319Y-88372849D01*
X123730869Y-88506082D01*
X123599988Y-88636735D01*
X123470429Y-88506949D01*
X123148211Y-88373153D01*
X122799319Y-88372849D01*
X122476869Y-88506082D01*
X122229949Y-88752571D01*
X122096153Y-89074789D01*
X122095849Y-89423681D01*
X94803848Y-89423681D01*
X94804151Y-89076319D01*
X94670918Y-88753869D01*
X94424429Y-88506949D01*
X94102211Y-88373153D01*
X93753319Y-88372849D01*
X93430869Y-88506082D01*
X93299988Y-88636735D01*
X93170429Y-88506949D01*
X92848211Y-88373153D01*
X92499319Y-88372849D01*
X92176869Y-88506082D01*
X91929949Y-88752571D01*
X91796153Y-89074789D01*
X91795849Y-89423681D01*
X91929082Y-89746131D01*
X92175571Y-89993051D01*
X92491201Y-90124111D01*
X92491201Y-104814271D01*
X84904112Y-112366554D01*
X84794598Y-112439729D01*
X84216733Y-113017594D01*
X84096468Y-113197584D01*
X84054236Y-113409897D01*
X84054236Y-119172977D01*
X83854829Y-119172803D01*
X83436783Y-119345536D01*
X83116660Y-119665100D01*
X82943198Y-120082845D01*
X82942803Y-120535171D01*
X82434385Y-120535171D01*
X82434385Y-119550000D01*
X82408097Y-119410292D01*
X82325530Y-119281980D01*
X82199547Y-119195899D01*
X82050000Y-119165615D01*
X80530000Y-119165615D01*
X80390292Y-119191903D01*
X80261980Y-119274470D01*
X80175899Y-119400453D01*
X80145615Y-119550000D01*
X66205200Y-119550000D01*
X66205200Y-108813070D01*
X70807780Y-108813070D01*
X70824623Y-108905230D01*
X71092980Y-109383892D01*
X71524086Y-109723422D01*
X72052308Y-109872130D01*
X72273000Y-109713277D01*
X72273000Y-108597000D01*
X70930280Y-108597000D01*
X70807780Y-108813070D01*
X66205200Y-108813070D01*
X66205200Y-106273070D01*
X70807780Y-106273070D01*
X70824623Y-106365230D01*
X71092980Y-106843892D01*
X71524086Y-107183422D01*
X71582972Y-107200000D01*
X71524086Y-107216578D01*
X71092980Y-107556108D01*
X70824623Y-108034770D01*
X70807780Y-108126930D01*
X70930280Y-108343000D01*
X72273000Y-108343000D01*
X72273000Y-107226723D01*
X72235874Y-107200000D01*
X72273000Y-107173277D01*
X72273000Y-106057000D01*
X70930280Y-106057000D01*
X70807780Y-106273070D01*
X66205200Y-106273070D01*
X66205200Y-105586930D01*
X70807780Y-105586930D01*
X70930280Y-105803000D01*
X72273000Y-105803000D01*
X72273000Y-104686723D01*
X72527000Y-104686723D01*
X72527000Y-105803000D01*
X72547000Y-105803000D01*
X72547000Y-106057000D01*
X72527000Y-106057000D01*
X72527000Y-107173277D01*
X72564126Y-107200000D01*
X72527000Y-107226723D01*
X72527000Y-108343000D01*
X72547000Y-108343000D01*
X72547000Y-108597000D01*
X72527000Y-108597000D01*
X72527000Y-109713277D01*
X72747692Y-109872130D01*
X73275914Y-109723422D01*
X73707020Y-109383892D01*
X73814284Y-109192567D01*
X73869628Y-109275395D01*
X74239147Y-109522299D01*
X74675023Y-109609000D01*
X75204977Y-109609000D01*
X75640853Y-109522299D01*
X76010372Y-109275395D01*
X76257276Y-108905876D01*
X76343977Y-108470000D01*
X76257276Y-108034124D01*
X76010372Y-107664605D01*
X75640853Y-107417701D01*
X75204977Y-107331000D01*
X74675023Y-107331000D01*
X74239147Y-107417701D01*
X73869628Y-107664605D01*
X73814284Y-107747433D01*
X73707020Y-107556108D01*
X73275914Y-107216578D01*
X73217028Y-107200000D01*
X73275914Y-107183422D01*
X73707020Y-106843892D01*
X73814284Y-106652567D01*
X73869628Y-106735395D01*
X74239147Y-106982299D01*
X74675023Y-107069000D01*
X75204977Y-107069000D01*
X75640853Y-106982299D01*
X76010372Y-106735395D01*
X76257276Y-106365876D01*
X76343977Y-105930000D01*
X76257276Y-105494124D01*
X76010372Y-105124605D01*
X75640853Y-104877701D01*
X75204977Y-104791000D01*
X74675023Y-104791000D01*
X74239147Y-104877701D01*
X73869628Y-105124605D01*
X73814284Y-105207433D01*
X73707020Y-105016108D01*
X73275914Y-104676578D01*
X72747692Y-104527870D01*
X72527000Y-104686723D01*
X72273000Y-104686723D01*
X72052308Y-104527870D01*
X71524086Y-104676578D01*
X71092980Y-105016108D01*
X70824623Y-105494770D01*
X70807780Y-105586930D01*
X66205200Y-105586930D01*
X66205200Y-103390000D01*
X70996023Y-103390000D01*
X71082724Y-103825876D01*
X71329628Y-104195395D01*
X71699147Y-104442299D01*
X72135023Y-104529000D01*
X72664977Y-104529000D01*
X73100853Y-104442299D01*
X73470372Y-104195395D01*
X73670000Y-103896630D01*
X73869628Y-104195395D01*
X74239147Y-104442299D01*
X74675023Y-104529000D01*
X75204977Y-104529000D01*
X75640853Y-104442299D01*
X76010372Y-104195395D01*
X76257276Y-103825876D01*
X76343977Y-103390000D01*
X76257276Y-102954124D01*
X76010372Y-102584605D01*
X75640853Y-102337701D01*
X75204977Y-102251000D01*
X74675023Y-102251000D01*
X74239147Y-102337701D01*
X73869628Y-102584605D01*
X73670000Y-102883370D01*
X73470372Y-102584605D01*
X73100853Y-102337701D01*
X72664977Y-102251000D01*
X72135023Y-102251000D01*
X71699147Y-102337701D01*
X71329628Y-102584605D01*
X71082724Y-102954124D01*
X70996023Y-103390000D01*
X66205200Y-103390000D01*
X66205200Y-100850000D01*
X70996023Y-100850000D01*
X71082724Y-101285876D01*
X71329628Y-101655395D01*
X71699147Y-101902299D01*
X72135023Y-101989000D01*
X72664977Y-101989000D01*
X73100853Y-101902299D01*
X73470372Y-101655395D01*
X73670000Y-101356630D01*
X73869628Y-101655395D01*
X74239147Y-101902299D01*
X74675023Y-101989000D01*
X75204977Y-101989000D01*
X75640853Y-101902299D01*
X76010372Y-101655395D01*
X76257276Y-101285876D01*
X76343977Y-100850000D01*
X76257276Y-100414124D01*
X76010372Y-100044605D01*
X75640853Y-99797701D01*
X75204977Y-99711000D01*
X74675023Y-99711000D01*
X74239147Y-99797701D01*
X73869628Y-100044605D01*
X73670000Y-100343370D01*
X73470372Y-100044605D01*
X73100853Y-99797701D01*
X72664977Y-99711000D01*
X72135023Y-99711000D01*
X71699147Y-99797701D01*
X71329628Y-100044605D01*
X71082724Y-100414124D01*
X70996023Y-100850000D01*
X66205200Y-100850000D01*
X66205200Y-98310000D01*
X70996023Y-98310000D01*
X71082724Y-98745876D01*
X71329628Y-99115395D01*
X71699147Y-99362299D01*
X72135023Y-99449000D01*
X72664977Y-99449000D01*
X73100853Y-99362299D01*
X73470372Y-99115395D01*
X73670000Y-98816630D01*
X73869628Y-99115395D01*
X74239147Y-99362299D01*
X74675023Y-99449000D01*
X75204977Y-99449000D01*
X75640853Y-99362299D01*
X76010372Y-99115395D01*
X76257276Y-98745876D01*
X76343977Y-98310000D01*
X76257276Y-97874124D01*
X76010372Y-97504605D01*
X75640853Y-97257701D01*
X75204977Y-97171000D01*
X74675023Y-97171000D01*
X74239147Y-97257701D01*
X73869628Y-97504605D01*
X73670000Y-97803370D01*
X73470372Y-97504605D01*
X73100853Y-97257701D01*
X72664977Y-97171000D01*
X72135023Y-97171000D01*
X71699147Y-97257701D01*
X71329628Y-97504605D01*
X71082724Y-97874124D01*
X70996023Y-98310000D01*
X66205200Y-98310000D01*
X66205200Y-95770000D01*
X70996023Y-95770000D01*
X71082724Y-96205876D01*
X71329628Y-96575395D01*
X71699147Y-96822299D01*
X72135023Y-96909000D01*
X72664977Y-96909000D01*
X73100853Y-96822299D01*
X73470372Y-96575395D01*
X73670000Y-96276630D01*
X73869628Y-96575395D01*
X74239147Y-96822299D01*
X74675023Y-96909000D01*
X75204977Y-96909000D01*
X75640853Y-96822299D01*
X76010372Y-96575395D01*
X76257276Y-96205876D01*
X76343977Y-95770000D01*
X76257276Y-95334124D01*
X76010372Y-94964605D01*
X75640853Y-94717701D01*
X75204977Y-94631000D01*
X74675023Y-94631000D01*
X74239147Y-94717701D01*
X73869628Y-94964605D01*
X73670000Y-95263370D01*
X73470372Y-94964605D01*
X73100853Y-94717701D01*
X72664977Y-94631000D01*
X72135023Y-94631000D01*
X71699147Y-94717701D01*
X71329628Y-94964605D01*
X71082724Y-95334124D01*
X70996023Y-95770000D01*
X66205200Y-95770000D01*
X66205200Y-93573070D01*
X70807780Y-93573070D01*
X70824623Y-93665230D01*
X71092980Y-94143892D01*
X71524086Y-94483422D01*
X72052308Y-94632130D01*
X72273000Y-94473277D01*
X72273000Y-93357000D01*
X70930280Y-93357000D01*
X70807780Y-93573070D01*
X66205200Y-93573070D01*
X66205200Y-91033070D01*
X70807780Y-91033070D01*
X70824623Y-91125230D01*
X71092980Y-91603892D01*
X71524086Y-91943422D01*
X71582972Y-91960000D01*
X71524086Y-91976578D01*
X71092980Y-92316108D01*
X70824623Y-92794770D01*
X70807780Y-92886930D01*
X70930280Y-93103000D01*
X72273000Y-93103000D01*
X72273000Y-91986723D01*
X72235874Y-91960000D01*
X72273000Y-91933277D01*
X72273000Y-90817000D01*
X70930280Y-90817000D01*
X70807780Y-91033070D01*
X66205200Y-91033070D01*
X66205200Y-90346930D01*
X70807780Y-90346930D01*
X70930280Y-90563000D01*
X72273000Y-90563000D01*
X72273000Y-89446723D01*
X72527000Y-89446723D01*
X72527000Y-90563000D01*
X72547000Y-90563000D01*
X72547000Y-90817000D01*
X72527000Y-90817000D01*
X72527000Y-91933277D01*
X72564126Y-91960000D01*
X72527000Y-91986723D01*
X72527000Y-93103000D01*
X72547000Y-93103000D01*
X72547000Y-93357000D01*
X72527000Y-93357000D01*
X72527000Y-94473277D01*
X72747692Y-94632130D01*
X73275914Y-94483422D01*
X73707020Y-94143892D01*
X73814284Y-93952567D01*
X73869628Y-94035395D01*
X74239147Y-94282299D01*
X74675023Y-94369000D01*
X75204977Y-94369000D01*
X75640853Y-94282299D01*
X76010372Y-94035395D01*
X76257276Y-93665876D01*
X76343977Y-93230000D01*
X76257276Y-92794124D01*
X76010372Y-92424605D01*
X75640853Y-92177701D01*
X75204977Y-92091000D01*
X74675023Y-92091000D01*
X74239147Y-92177701D01*
X73869628Y-92424605D01*
X73814284Y-92507433D01*
X73707020Y-92316108D01*
X73275914Y-91976578D01*
X73217028Y-91960000D01*
X73275914Y-91943422D01*
X73707020Y-91603892D01*
X73814284Y-91412567D01*
X73869628Y-91495395D01*
X74239147Y-91742299D01*
X74675023Y-91829000D01*
X75204977Y-91829000D01*
X75640853Y-91742299D01*
X76010372Y-91495395D01*
X76257276Y-91125876D01*
X76343977Y-90690000D01*
X76257276Y-90254124D01*
X76010372Y-89884605D01*
X75640853Y-89637701D01*
X75204977Y-89551000D01*
X74675023Y-89551000D01*
X74239147Y-89637701D01*
X73869628Y-89884605D01*
X73814284Y-89967433D01*
X73707020Y-89776108D01*
X73275914Y-89436578D01*
X72747692Y-89287870D01*
X72527000Y-89446723D01*
X72273000Y-89446723D01*
X72052308Y-89287870D01*
X71524086Y-89436578D01*
X71092980Y-89776108D01*
X70824623Y-90254770D01*
X70807780Y-90346930D01*
X66205200Y-90346930D01*
X66205200Y-88150000D01*
X70996023Y-88150000D01*
X71082724Y-88585876D01*
X71329628Y-88955395D01*
X71699147Y-89202299D01*
X72135023Y-89289000D01*
X72664977Y-89289000D01*
X73100853Y-89202299D01*
X73470372Y-88955395D01*
X73670000Y-88656630D01*
X73869628Y-88955395D01*
X74239147Y-89202299D01*
X74675023Y-89289000D01*
X75204977Y-89289000D01*
X75640853Y-89202299D01*
X76010372Y-88955395D01*
X76257276Y-88585876D01*
X76343977Y-88150000D01*
X76257276Y-87714124D01*
X76010372Y-87344605D01*
X75640853Y-87097701D01*
X75204977Y-87011000D01*
X74675023Y-87011000D01*
X74239147Y-87097701D01*
X73869628Y-87344605D01*
X73670000Y-87643370D01*
X73470372Y-87344605D01*
X73100853Y-87097701D01*
X72664977Y-87011000D01*
X72135023Y-87011000D01*
X71699147Y-87097701D01*
X71329628Y-87344605D01*
X71082724Y-87714124D01*
X70996023Y-88150000D01*
X66205200Y-88150000D01*
X66205200Y-85610000D01*
X70996023Y-85610000D01*
X71082724Y-86045876D01*
X71329628Y-86415395D01*
X71699147Y-86662299D01*
X72135023Y-86749000D01*
X72664977Y-86749000D01*
X73100853Y-86662299D01*
X73470372Y-86415395D01*
X73670000Y-86116630D01*
X73869628Y-86415395D01*
X74239147Y-86662299D01*
X74675023Y-86749000D01*
X75204977Y-86749000D01*
X75640853Y-86662299D01*
X76010372Y-86415395D01*
X76257276Y-86045876D01*
X76343977Y-85610000D01*
X76257276Y-85174124D01*
X76010372Y-84804605D01*
X75640853Y-84557701D01*
X75204977Y-84471000D01*
X74675023Y-84471000D01*
X74239147Y-84557701D01*
X73869628Y-84804605D01*
X73670000Y-85103370D01*
X73470372Y-84804605D01*
X73100853Y-84557701D01*
X72664977Y-84471000D01*
X72135023Y-84471000D01*
X71699147Y-84557701D01*
X71329628Y-84804605D01*
X71082724Y-85174124D01*
X70996023Y-85610000D01*
X66205200Y-85610000D01*
X66205200Y-83413070D01*
X70807780Y-83413070D01*
X70824623Y-83505230D01*
X71092980Y-83983892D01*
X71524086Y-84323422D01*
X72052308Y-84472130D01*
X72273000Y-84313277D01*
X72273000Y-83197000D01*
X70930280Y-83197000D01*
X70807780Y-83413070D01*
X66205200Y-83413070D01*
X66205200Y-80873070D01*
X70807780Y-80873070D01*
X70824623Y-80965230D01*
X71092980Y-81443892D01*
X71524086Y-81783422D01*
X71582972Y-81800000D01*
X71524086Y-81816578D01*
X71092980Y-82156108D01*
X70824623Y-82634770D01*
X70807780Y-82726930D01*
X70930280Y-82943000D01*
X72273000Y-82943000D01*
X72273000Y-81826723D01*
X72235874Y-81800000D01*
X72273000Y-81773277D01*
X72273000Y-80657000D01*
X70930280Y-80657000D01*
X70807780Y-80873070D01*
X66205200Y-80873070D01*
X66205200Y-80186930D01*
X70807780Y-80186930D01*
X70930280Y-80403000D01*
X72273000Y-80403000D01*
X72273000Y-79286723D01*
X72527000Y-79286723D01*
X72527000Y-80403000D01*
X72547000Y-80403000D01*
X72547000Y-80657000D01*
X72527000Y-80657000D01*
X72527000Y-81773277D01*
X72564126Y-81800000D01*
X72527000Y-81826723D01*
X72527000Y-82943000D01*
X72547000Y-82943000D01*
X72547000Y-83197000D01*
X72527000Y-83197000D01*
X72527000Y-84313277D01*
X72747692Y-84472130D01*
X73275914Y-84323422D01*
X73707020Y-83983892D01*
X73814284Y-83792567D01*
X73869628Y-83875395D01*
X74239147Y-84122299D01*
X74675023Y-84209000D01*
X75204977Y-84209000D01*
X75640853Y-84122299D01*
X76010372Y-83875395D01*
X76257276Y-83505876D01*
X76343977Y-83070000D01*
X76257276Y-82634124D01*
X76010372Y-82264605D01*
X75640853Y-82017701D01*
X75204977Y-81931000D01*
X74675023Y-81931000D01*
X74239147Y-82017701D01*
X73869628Y-82264605D01*
X73814284Y-82347433D01*
X73707020Y-82156108D01*
X73275914Y-81816578D01*
X73217028Y-81800000D01*
X73275914Y-81783422D01*
X73707020Y-81443892D01*
X73814284Y-81252567D01*
X73869628Y-81335395D01*
X74239147Y-81582299D01*
X74675023Y-81669000D01*
X75204977Y-81669000D01*
X75640853Y-81582299D01*
X76010372Y-81335395D01*
X76257276Y-80965876D01*
X76343977Y-80530000D01*
X76257276Y-80094124D01*
X76010372Y-79724605D01*
X75640853Y-79477701D01*
X75204977Y-79391000D01*
X74675023Y-79391000D01*
X74239147Y-79477701D01*
X73869628Y-79724605D01*
X73814284Y-79807433D01*
X73707020Y-79616108D01*
X73275914Y-79276578D01*
X72747692Y-79127870D01*
X72527000Y-79286723D01*
X72273000Y-79286723D01*
X72052308Y-79127870D01*
X71524086Y-79276578D01*
X71092980Y-79616108D01*
X70824623Y-80094770D01*
X70807780Y-80186930D01*
X66205200Y-80186930D01*
X66205200Y-77990000D01*
X70996023Y-77990000D01*
X71082724Y-78425876D01*
X71329628Y-78795395D01*
X71699147Y-79042299D01*
X72135023Y-79129000D01*
X72664977Y-79129000D01*
X73100853Y-79042299D01*
X73470372Y-78795395D01*
X73670000Y-78496630D01*
X73869628Y-78795395D01*
X74239147Y-79042299D01*
X74675023Y-79129000D01*
X75204977Y-79129000D01*
X75640853Y-79042299D01*
X76010372Y-78795395D01*
X76257276Y-78425876D01*
X76343977Y-77990000D01*
X76257276Y-77554124D01*
X76010372Y-77184605D01*
X75640853Y-76937701D01*
X75204977Y-76851000D01*
X74675023Y-76851000D01*
X74239147Y-76937701D01*
X73869628Y-77184605D01*
X73670000Y-77483370D01*
X73470372Y-77184605D01*
X73100853Y-76937701D01*
X72664977Y-76851000D01*
X72135023Y-76851000D01*
X71699147Y-76937701D01*
X71329628Y-77184605D01*
X71082724Y-77554124D01*
X70996023Y-77990000D01*
X66205200Y-77990000D01*
X66205200Y-75793070D01*
X70807780Y-75793070D01*
X70824623Y-75885230D01*
X71092980Y-76363892D01*
X71524086Y-76703422D01*
X72052308Y-76852130D01*
X72273000Y-76693277D01*
X72273000Y-75577000D01*
X70930280Y-75577000D01*
X70807780Y-75793070D01*
X66205200Y-75793070D01*
X66205200Y-73253070D01*
X70807780Y-73253070D01*
X70824623Y-73345230D01*
X71092980Y-73823892D01*
X71524086Y-74163422D01*
X71582972Y-74180000D01*
X71524086Y-74196578D01*
X71092980Y-74536108D01*
X70824623Y-75014770D01*
X70807780Y-75106930D01*
X70930280Y-75323000D01*
X72273000Y-75323000D01*
X72273000Y-74206723D01*
X72235874Y-74180000D01*
X72273000Y-74153277D01*
X72273000Y-73037000D01*
X70930280Y-73037000D01*
X70807780Y-73253070D01*
X66205200Y-73253070D01*
X66205200Y-72566930D01*
X70807780Y-72566930D01*
X70930280Y-72783000D01*
X72273000Y-72783000D01*
X72273000Y-71666723D01*
X72527000Y-71666723D01*
X72527000Y-72783000D01*
X72547000Y-72783000D01*
X72547000Y-73037000D01*
X72527000Y-73037000D01*
X72527000Y-74153277D01*
X72564126Y-74180000D01*
X72527000Y-74206723D01*
X72527000Y-75323000D01*
X72547000Y-75323000D01*
X72547000Y-75577000D01*
X72527000Y-75577000D01*
X72527000Y-76693277D01*
X72747692Y-76852130D01*
X73275914Y-76703422D01*
X73707020Y-76363892D01*
X73814284Y-76172567D01*
X73869628Y-76255395D01*
X74239147Y-76502299D01*
X74675023Y-76589000D01*
X75204977Y-76589000D01*
X75640853Y-76502299D01*
X76010372Y-76255395D01*
X76257276Y-75885876D01*
X76343977Y-75450000D01*
X76257276Y-75014124D01*
X76010372Y-74644605D01*
X75640853Y-74397701D01*
X75204977Y-74311000D01*
X74675023Y-74311000D01*
X74239147Y-74397701D01*
X73869628Y-74644605D01*
X73814284Y-74727433D01*
X73707020Y-74536108D01*
X73275914Y-74196578D01*
X73217028Y-74180000D01*
X73275914Y-74163422D01*
X73707020Y-73823892D01*
X73814284Y-73632567D01*
X73869628Y-73715395D01*
X74239147Y-73962299D01*
X74675023Y-74049000D01*
X75204977Y-74049000D01*
X75640853Y-73962299D01*
X76010372Y-73715395D01*
X76257276Y-73345876D01*
X76343977Y-72910000D01*
X76257276Y-72474124D01*
X76010372Y-72104605D01*
X75640853Y-71857701D01*
X75204977Y-71771000D01*
X74675023Y-71771000D01*
X74239147Y-71857701D01*
X73869628Y-72104605D01*
X73814284Y-72187433D01*
X73707020Y-71996108D01*
X73275914Y-71656578D01*
X72747692Y-71507870D01*
X72527000Y-71666723D01*
X72273000Y-71666723D01*
X72052308Y-71507870D01*
X71524086Y-71656578D01*
X71092980Y-71996108D01*
X70824623Y-72474770D01*
X70807780Y-72566930D01*
X66205200Y-72566930D01*
X66205200Y-70370000D01*
X70996023Y-70370000D01*
X71082724Y-70805876D01*
X71329628Y-71175395D01*
X71699147Y-71422299D01*
X72135023Y-71509000D01*
X72664977Y-71509000D01*
X73100853Y-71422299D01*
X73470372Y-71175395D01*
X73670000Y-70876630D01*
X73869628Y-71175395D01*
X74239147Y-71422299D01*
X74675023Y-71509000D01*
X75204977Y-71509000D01*
X75640853Y-71422299D01*
X76010372Y-71175395D01*
X76257276Y-70805876D01*
X76343977Y-70370000D01*
X76257276Y-69934124D01*
X76010372Y-69564605D01*
X75640853Y-69317701D01*
X75204977Y-69231000D01*
X74675023Y-69231000D01*
X74239147Y-69317701D01*
X73869628Y-69564605D01*
X73670000Y-69863370D01*
X73470372Y-69564605D01*
X73100853Y-69317701D01*
X72664977Y-69231000D01*
X72135023Y-69231000D01*
X71699147Y-69317701D01*
X71329628Y-69564605D01*
X71082724Y-69934124D01*
X70996023Y-70370000D01*
X66205200Y-70370000D01*
X66205200Y-68173070D01*
X70807780Y-68173070D01*
X70824623Y-68265230D01*
X71092980Y-68743892D01*
X71524086Y-69083422D01*
X72052308Y-69232130D01*
X72273000Y-69073277D01*
X72273000Y-67957000D01*
X70930280Y-67957000D01*
X70807780Y-68173070D01*
X66205200Y-68173070D01*
X66205200Y-65633070D01*
X70807780Y-65633070D01*
X70824623Y-65725230D01*
X71092980Y-66203892D01*
X71524086Y-66543422D01*
X71582972Y-66560000D01*
X71524086Y-66576578D01*
X71092980Y-66916108D01*
X70824623Y-67394770D01*
X70807780Y-67486930D01*
X70930280Y-67703000D01*
X72273000Y-67703000D01*
X72273000Y-66586723D01*
X72235874Y-66560000D01*
X72273000Y-66533277D01*
X72273000Y-65417000D01*
X70930280Y-65417000D01*
X70807780Y-65633070D01*
X66205200Y-65633070D01*
X66205200Y-63093070D01*
X70807780Y-63093070D01*
X70824623Y-63185230D01*
X71092980Y-63663892D01*
X71524086Y-64003422D01*
X71582972Y-64020000D01*
X71524086Y-64036578D01*
X71092980Y-64376108D01*
X70824623Y-64854770D01*
X70807780Y-64946930D01*
X70930280Y-65163000D01*
X72273000Y-65163000D01*
X72273000Y-64046723D01*
X72235874Y-64020000D01*
X72273000Y-63993277D01*
X72273000Y-62877000D01*
X70930280Y-62877000D01*
X70807780Y-63093070D01*
X66205200Y-63093070D01*
X66205200Y-62406930D01*
X70807780Y-62406930D01*
X70930280Y-62623000D01*
X72273000Y-62623000D01*
X72273000Y-62603000D01*
X72527000Y-62603000D01*
X72527000Y-62623000D01*
X72547000Y-62623000D01*
X72547000Y-62877000D01*
X72527000Y-62877000D01*
X72527000Y-63993277D01*
X72564126Y-64020000D01*
X72527000Y-64046723D01*
X72527000Y-65163000D01*
X72547000Y-65163000D01*
X72547000Y-65417000D01*
X72527000Y-65417000D01*
X72527000Y-66533277D01*
X72564126Y-66560000D01*
X72527000Y-66586723D01*
X72527000Y-67703000D01*
X72547000Y-67703000D01*
X72547000Y-67957000D01*
X72527000Y-67957000D01*
X72527000Y-69073277D01*
X72747692Y-69232130D01*
X73275914Y-69083422D01*
X73707020Y-68743892D01*
X73814284Y-68552567D01*
X73869628Y-68635395D01*
X74239147Y-68882299D01*
X74675023Y-68969000D01*
X75204977Y-68969000D01*
X75640853Y-68882299D01*
X76010372Y-68635395D01*
X76257276Y-68265876D01*
X76343977Y-67830000D01*
X76257276Y-67394124D01*
X76010372Y-67024605D01*
X75640853Y-66777701D01*
X75204977Y-66691000D01*
X74675023Y-66691000D01*
X74239147Y-66777701D01*
X73869628Y-67024605D01*
X73814284Y-67107433D01*
X73707020Y-66916108D01*
X73275914Y-66576578D01*
X73217028Y-66560000D01*
X73275914Y-66543422D01*
X73707020Y-66203892D01*
X73814284Y-66012567D01*
X73869628Y-66095395D01*
X74239147Y-66342299D01*
X74675023Y-66429000D01*
X75204977Y-66429000D01*
X75640853Y-66342299D01*
X76010372Y-66095395D01*
X76257276Y-65725876D01*
X76343977Y-65290000D01*
X76257276Y-64854124D01*
X76010372Y-64484605D01*
X75640853Y-64237701D01*
X75204977Y-64151000D01*
X74675023Y-64151000D01*
X74239147Y-64237701D01*
X73869628Y-64484605D01*
X73814284Y-64567433D01*
X73707020Y-64376108D01*
X73275914Y-64036578D01*
X73217028Y-64020000D01*
X73275914Y-64003422D01*
X73707020Y-63663892D01*
X73814284Y-63472567D01*
X73869628Y-63555395D01*
X74239147Y-63802299D01*
X74675023Y-63889000D01*
X75204977Y-63889000D01*
X75640853Y-63802299D01*
X76010372Y-63555395D01*
X76257276Y-63185876D01*
X76343977Y-62750000D01*
X76257276Y-62314124D01*
X76010372Y-61944605D01*
X75640853Y-61697701D01*
X75204977Y-61611000D01*
X74675023Y-61611000D01*
X74239147Y-61697701D01*
X73869628Y-61944605D01*
X73814284Y-62027433D01*
X73707020Y-61836108D01*
X73275914Y-61496578D01*
X72777938Y-61356385D01*
X73400000Y-61356385D01*
X73539708Y-61330097D01*
X73668020Y-61247530D01*
X73754101Y-61121547D01*
X73784385Y-60972000D01*
X73784385Y-60887819D01*
X73869628Y-61015395D01*
X74239147Y-61262299D01*
X74675023Y-61349000D01*
X75204977Y-61349000D01*
X75640853Y-61262299D01*
X76010372Y-61015395D01*
X76126899Y-60841000D01*
X83232289Y-60841000D01*
X84866097Y-62474808D01*
X84866097Y-82447097D01*
X84903299Y-82634124D01*
X84914129Y-82688570D01*
X85050913Y-82893281D01*
X85622987Y-83465355D01*
X85622849Y-83623681D01*
X85756082Y-83946131D01*
X86002571Y-84193051D01*
X86324789Y-84326847D01*
X86673681Y-84327151D01*
X86996131Y-84193918D01*
X87243051Y-83947429D01*
X87376847Y-83625211D01*
X87376979Y-83473681D01*
X130115733Y-83473681D01*
X130248966Y-83796131D01*
X130495455Y-84043051D01*
X130817673Y-84176847D01*
X131166565Y-84177151D01*
X131489015Y-84043918D01*
X131735935Y-83797429D01*
X131869731Y-83475211D01*
X131869870Y-83315382D01*
X132115252Y-83070000D01*
X142116023Y-83070000D01*
X142202724Y-83505876D01*
X142449628Y-83875395D01*
X142819147Y-84122299D01*
X143255023Y-84209000D01*
X143784977Y-84209000D01*
X144220853Y-84122299D01*
X144590372Y-83875395D01*
X144645716Y-83792567D01*
X144752980Y-83983892D01*
X145184086Y-84323422D01*
X145242972Y-84340000D01*
X145184086Y-84356578D01*
X144752980Y-84696108D01*
X144645716Y-84887433D01*
X144590372Y-84804605D01*
X144220853Y-84557701D01*
X143784977Y-84471000D01*
X143255023Y-84471000D01*
X142819147Y-84557701D01*
X142449628Y-84804605D01*
X142202724Y-85174124D01*
X142116023Y-85610000D01*
X142202724Y-86045876D01*
X142449628Y-86415395D01*
X142819147Y-86662299D01*
X143255023Y-86749000D01*
X143784977Y-86749000D01*
X144220853Y-86662299D01*
X144590372Y-86415395D01*
X144645716Y-86332567D01*
X144752980Y-86523892D01*
X145184086Y-86863422D01*
X145242972Y-86880000D01*
X145184086Y-86896578D01*
X144752980Y-87236108D01*
X144645716Y-87427433D01*
X144590372Y-87344605D01*
X144220853Y-87097701D01*
X143784977Y-87011000D01*
X143255023Y-87011000D01*
X142819147Y-87097701D01*
X142449628Y-87344605D01*
X142202724Y-87714124D01*
X142116023Y-88150000D01*
X142202724Y-88585876D01*
X142449628Y-88955395D01*
X142819147Y-89202299D01*
X143255023Y-89289000D01*
X143784977Y-89289000D01*
X144220853Y-89202299D01*
X144590372Y-88955395D01*
X144645716Y-88872567D01*
X144752980Y-89063892D01*
X145184086Y-89403422D01*
X145242972Y-89420000D01*
X145184086Y-89436578D01*
X144752980Y-89776108D01*
X144645716Y-89967433D01*
X144590372Y-89884605D01*
X144220853Y-89637701D01*
X143784977Y-89551000D01*
X143255023Y-89551000D01*
X142819147Y-89637701D01*
X142449628Y-89884605D01*
X142202724Y-90254124D01*
X142116023Y-90690000D01*
X142202724Y-91125876D01*
X142449628Y-91495395D01*
X142819147Y-91742299D01*
X143255023Y-91829000D01*
X143784977Y-91829000D01*
X144220853Y-91742299D01*
X144590372Y-91495395D01*
X144645716Y-91412567D01*
X144752980Y-91603892D01*
X145184086Y-91943422D01*
X145242972Y-91960000D01*
X145184086Y-91976578D01*
X144752980Y-92316108D01*
X144645716Y-92507433D01*
X144590372Y-92424605D01*
X144220853Y-92177701D01*
X143784977Y-92091000D01*
X143255023Y-92091000D01*
X142819147Y-92177701D01*
X142449628Y-92424605D01*
X142202724Y-92794124D01*
X142116023Y-93230000D01*
X142202724Y-93665876D01*
X142449628Y-94035395D01*
X142819147Y-94282299D01*
X143255023Y-94369000D01*
X143784977Y-94369000D01*
X144220853Y-94282299D01*
X144590372Y-94035395D01*
X144645716Y-93952567D01*
X144752980Y-94143892D01*
X145184086Y-94483422D01*
X145242972Y-94500000D01*
X145184086Y-94516578D01*
X144752980Y-94856108D01*
X144645716Y-95047433D01*
X144590372Y-94964605D01*
X144220853Y-94717701D01*
X143784977Y-94631000D01*
X143255023Y-94631000D01*
X142819147Y-94717701D01*
X142449628Y-94964605D01*
X142202724Y-95334124D01*
X142116023Y-95770000D01*
X142202724Y-96205876D01*
X142449628Y-96575395D01*
X142819147Y-96822299D01*
X143255023Y-96909000D01*
X143784977Y-96909000D01*
X144220853Y-96822299D01*
X144590372Y-96575395D01*
X144645716Y-96492567D01*
X144752980Y-96683892D01*
X145184086Y-97023422D01*
X145242972Y-97040000D01*
X145184086Y-97056578D01*
X144752980Y-97396108D01*
X144645716Y-97587433D01*
X144590372Y-97504605D01*
X144220853Y-97257701D01*
X143784977Y-97171000D01*
X143255023Y-97171000D01*
X142819147Y-97257701D01*
X142449628Y-97504605D01*
X142202724Y-97874124D01*
X142116023Y-98310000D01*
X142202724Y-98745876D01*
X142449628Y-99115395D01*
X142819147Y-99362299D01*
X143255023Y-99449000D01*
X143784977Y-99449000D01*
X144220853Y-99362299D01*
X144590372Y-99115395D01*
X144645716Y-99032567D01*
X144752980Y-99223892D01*
X145184086Y-99563422D01*
X145712308Y-99712130D01*
X145933000Y-99553277D01*
X145933000Y-98437000D01*
X146187000Y-98437000D01*
X146187000Y-99553277D01*
X146407692Y-99712130D01*
X146935914Y-99563422D01*
X147367020Y-99223892D01*
X147635377Y-98745230D01*
X147652220Y-98653070D01*
X147529720Y-98437000D01*
X146187000Y-98437000D01*
X145933000Y-98437000D01*
X145913000Y-98437000D01*
X145913000Y-98183000D01*
X145933000Y-98183000D01*
X145933000Y-97066723D01*
X145895874Y-97040000D01*
X145933000Y-97013277D01*
X145933000Y-95897000D01*
X146187000Y-95897000D01*
X146187000Y-97013277D01*
X146224126Y-97040000D01*
X146187000Y-97066723D01*
X146187000Y-98183000D01*
X147529720Y-98183000D01*
X147652220Y-97966930D01*
X147635377Y-97874770D01*
X147367020Y-97396108D01*
X146935914Y-97056578D01*
X146877028Y-97040000D01*
X146935914Y-97023422D01*
X147367020Y-96683892D01*
X147635377Y-96205230D01*
X147652220Y-96113070D01*
X147529720Y-95897000D01*
X146187000Y-95897000D01*
X145933000Y-95897000D01*
X145913000Y-95897000D01*
X145913000Y-95643000D01*
X145933000Y-95643000D01*
X145933000Y-94526723D01*
X145895874Y-94500000D01*
X145933000Y-94473277D01*
X145933000Y-93357000D01*
X146187000Y-93357000D01*
X146187000Y-94473277D01*
X146224126Y-94500000D01*
X146187000Y-94526723D01*
X146187000Y-95643000D01*
X147529720Y-95643000D01*
X147652220Y-95426930D01*
X147635377Y-95334770D01*
X147367020Y-94856108D01*
X146935914Y-94516578D01*
X146877028Y-94500000D01*
X146935914Y-94483422D01*
X147367020Y-94143892D01*
X147635377Y-93665230D01*
X147652220Y-93573070D01*
X147529720Y-93357000D01*
X146187000Y-93357000D01*
X145933000Y-93357000D01*
X145913000Y-93357000D01*
X145913000Y-93103000D01*
X145933000Y-93103000D01*
X145933000Y-91986723D01*
X145895874Y-91960000D01*
X145933000Y-91933277D01*
X145933000Y-90817000D01*
X146187000Y-90817000D01*
X146187000Y-91933277D01*
X146224126Y-91960000D01*
X146187000Y-91986723D01*
X146187000Y-93103000D01*
X147529720Y-93103000D01*
X147652220Y-92886930D01*
X147635377Y-92794770D01*
X147367020Y-92316108D01*
X146935914Y-91976578D01*
X146877028Y-91960000D01*
X146935914Y-91943422D01*
X147367020Y-91603892D01*
X147635377Y-91125230D01*
X147652220Y-91033070D01*
X147529720Y-90817000D01*
X146187000Y-90817000D01*
X145933000Y-90817000D01*
X145913000Y-90817000D01*
X145913000Y-90563000D01*
X145933000Y-90563000D01*
X145933000Y-89446723D01*
X145895874Y-89420000D01*
X145933000Y-89393277D01*
X145933000Y-88277000D01*
X146187000Y-88277000D01*
X146187000Y-89393277D01*
X146224126Y-89420000D01*
X146187000Y-89446723D01*
X146187000Y-90563000D01*
X147529720Y-90563000D01*
X147652220Y-90346930D01*
X147635377Y-90254770D01*
X147367020Y-89776108D01*
X146935914Y-89436578D01*
X146877028Y-89420000D01*
X146935914Y-89403422D01*
X147367020Y-89063892D01*
X147635377Y-88585230D01*
X147652220Y-88493070D01*
X147529720Y-88277000D01*
X146187000Y-88277000D01*
X145933000Y-88277000D01*
X145913000Y-88277000D01*
X145913000Y-88023000D01*
X145933000Y-88023000D01*
X145933000Y-86906723D01*
X145895874Y-86880000D01*
X145933000Y-86853277D01*
X145933000Y-85737000D01*
X146187000Y-85737000D01*
X146187000Y-86853277D01*
X146224126Y-86880000D01*
X146187000Y-86906723D01*
X146187000Y-88023000D01*
X147529720Y-88023000D01*
X147652220Y-87806930D01*
X147635377Y-87714770D01*
X147367020Y-87236108D01*
X146935914Y-86896578D01*
X146877028Y-86880000D01*
X146935914Y-86863422D01*
X147367020Y-86523892D01*
X147635377Y-86045230D01*
X147652220Y-85953070D01*
X147529720Y-85737000D01*
X146187000Y-85737000D01*
X145933000Y-85737000D01*
X145913000Y-85737000D01*
X145913000Y-85483000D01*
X145933000Y-85483000D01*
X145933000Y-84366723D01*
X145895874Y-84340000D01*
X145933000Y-84313277D01*
X145933000Y-83197000D01*
X146187000Y-83197000D01*
X146187000Y-84313277D01*
X146224126Y-84340000D01*
X146187000Y-84366723D01*
X146187000Y-85483000D01*
X147529720Y-85483000D01*
X147652220Y-85266930D01*
X147635377Y-85174770D01*
X147367020Y-84696108D01*
X146935914Y-84356578D01*
X146877028Y-84340000D01*
X146935914Y-84323422D01*
X147367020Y-83983892D01*
X147635377Y-83505230D01*
X147652220Y-83413070D01*
X147529720Y-83197000D01*
X146187000Y-83197000D01*
X145933000Y-83197000D01*
X145913000Y-83197000D01*
X145913000Y-82943000D01*
X145933000Y-82943000D01*
X145933000Y-81826723D01*
X146187000Y-81826723D01*
X146187000Y-82943000D01*
X147529720Y-82943000D01*
X147652220Y-82726930D01*
X147635377Y-82634770D01*
X147367020Y-82156108D01*
X146935914Y-81816578D01*
X146407692Y-81667870D01*
X146187000Y-81826723D01*
X145933000Y-81826723D01*
X145712308Y-81667870D01*
X145184086Y-81816578D01*
X144752980Y-82156108D01*
X144645716Y-82347433D01*
X144590372Y-82264605D01*
X144220853Y-82017701D01*
X143784977Y-81931000D01*
X143255023Y-81931000D01*
X142819147Y-82017701D01*
X142449628Y-82264605D01*
X142202724Y-82634124D01*
X142116023Y-83070000D01*
X132115252Y-83070000D01*
X132358572Y-82826681D01*
X132495355Y-82621970D01*
X132543387Y-82380497D01*
X132543387Y-80530000D01*
X142116023Y-80530000D01*
X142202724Y-80965876D01*
X142449628Y-81335395D01*
X142819147Y-81582299D01*
X143255023Y-81669000D01*
X143784977Y-81669000D01*
X144220853Y-81582299D01*
X144590372Y-81335395D01*
X144790000Y-81036630D01*
X144989628Y-81335395D01*
X145359147Y-81582299D01*
X145795023Y-81669000D01*
X146324977Y-81669000D01*
X146760853Y-81582299D01*
X147130372Y-81335395D01*
X147377276Y-80965876D01*
X147463977Y-80530000D01*
X147377276Y-80094124D01*
X147130372Y-79724605D01*
X146760853Y-79477701D01*
X146324977Y-79391000D01*
X145795023Y-79391000D01*
X145359147Y-79477701D01*
X144989628Y-79724605D01*
X144790000Y-80023370D01*
X144590372Y-79724605D01*
X144220853Y-79477701D01*
X143784977Y-79391000D01*
X143255023Y-79391000D01*
X142819147Y-79477701D01*
X142449628Y-79724605D01*
X142202724Y-80094124D01*
X142116023Y-80530000D01*
X132543387Y-80530000D01*
X132543387Y-77990000D01*
X142116023Y-77990000D01*
X142202724Y-78425876D01*
X142449628Y-78795395D01*
X142819147Y-79042299D01*
X143255023Y-79129000D01*
X143784977Y-79129000D01*
X144220853Y-79042299D01*
X144590372Y-78795395D01*
X144790000Y-78496630D01*
X144989628Y-78795395D01*
X145359147Y-79042299D01*
X145795023Y-79129000D01*
X146324977Y-79129000D01*
X146760853Y-79042299D01*
X147130372Y-78795395D01*
X147377276Y-78425876D01*
X147463977Y-77990000D01*
X147377276Y-77554124D01*
X147130372Y-77184605D01*
X146760853Y-76937701D01*
X146324977Y-76851000D01*
X145795023Y-76851000D01*
X145359147Y-76937701D01*
X144989628Y-77184605D01*
X144790000Y-77483370D01*
X144590372Y-77184605D01*
X144220853Y-76937701D01*
X143784977Y-76851000D01*
X143255023Y-76851000D01*
X142819147Y-76937701D01*
X142449628Y-77184605D01*
X142202724Y-77554124D01*
X142116023Y-77990000D01*
X132543387Y-77990000D01*
X132543387Y-75450000D01*
X142116023Y-75450000D01*
X142202724Y-75885876D01*
X142449628Y-76255395D01*
X142819147Y-76502299D01*
X143255023Y-76589000D01*
X143784977Y-76589000D01*
X144220853Y-76502299D01*
X144590372Y-76255395D01*
X144790000Y-75956630D01*
X144989628Y-76255395D01*
X145359147Y-76502299D01*
X145795023Y-76589000D01*
X146324977Y-76589000D01*
X146760853Y-76502299D01*
X147130372Y-76255395D01*
X147377276Y-75885876D01*
X147463977Y-75450000D01*
X147377276Y-75014124D01*
X147130372Y-74644605D01*
X146760853Y-74397701D01*
X146324977Y-74311000D01*
X145795023Y-74311000D01*
X145359147Y-74397701D01*
X144989628Y-74644605D01*
X144790000Y-74943370D01*
X144590372Y-74644605D01*
X144220853Y-74397701D01*
X143784977Y-74311000D01*
X143255023Y-74311000D01*
X142819147Y-74397701D01*
X142449628Y-74644605D01*
X142202724Y-75014124D01*
X142116023Y-75450000D01*
X132543387Y-75450000D01*
X132543387Y-72910000D01*
X142116023Y-72910000D01*
X142202724Y-73345876D01*
X142449628Y-73715395D01*
X142819147Y-73962299D01*
X143255023Y-74049000D01*
X143784977Y-74049000D01*
X144220853Y-73962299D01*
X144590372Y-73715395D01*
X144790000Y-73416630D01*
X144989628Y-73715395D01*
X145359147Y-73962299D01*
X145795023Y-74049000D01*
X146324977Y-74049000D01*
X146760853Y-73962299D01*
X147130372Y-73715395D01*
X147377276Y-73345876D01*
X147463977Y-72910000D01*
X147377276Y-72474124D01*
X147130372Y-72104605D01*
X146760853Y-71857701D01*
X146324977Y-71771000D01*
X145795023Y-71771000D01*
X145359147Y-71857701D01*
X144989628Y-72104605D01*
X144790000Y-72403370D01*
X144590372Y-72104605D01*
X144220853Y-71857701D01*
X143784977Y-71771000D01*
X143255023Y-71771000D01*
X142819147Y-71857701D01*
X142449628Y-72104605D01*
X142202724Y-72474124D01*
X142116023Y-72910000D01*
X132543387Y-72910000D01*
X132543387Y-70370000D01*
X142116023Y-70370000D01*
X142202724Y-70805876D01*
X142449628Y-71175395D01*
X142819147Y-71422299D01*
X143255023Y-71509000D01*
X143784977Y-71509000D01*
X144220853Y-71422299D01*
X144590372Y-71175395D01*
X144790000Y-70876630D01*
X144989628Y-71175395D01*
X145359147Y-71422299D01*
X145795023Y-71509000D01*
X146324977Y-71509000D01*
X146760853Y-71422299D01*
X147130372Y-71175395D01*
X147377276Y-70805876D01*
X147463977Y-70370000D01*
X147377276Y-69934124D01*
X147130372Y-69564605D01*
X146760853Y-69317701D01*
X146324977Y-69231000D01*
X145795023Y-69231000D01*
X145359147Y-69317701D01*
X144989628Y-69564605D01*
X144790000Y-69863370D01*
X144590372Y-69564605D01*
X144220853Y-69317701D01*
X143784977Y-69231000D01*
X143255023Y-69231000D01*
X142819147Y-69317701D01*
X142449628Y-69564605D01*
X142202724Y-69934124D01*
X142116023Y-70370000D01*
X132543387Y-70370000D01*
X132543387Y-67830000D01*
X142116023Y-67830000D01*
X142202724Y-68265876D01*
X142449628Y-68635395D01*
X142819147Y-68882299D01*
X143255023Y-68969000D01*
X143784977Y-68969000D01*
X144220853Y-68882299D01*
X144590372Y-68635395D01*
X144790000Y-68336630D01*
X144989628Y-68635395D01*
X145359147Y-68882299D01*
X145795023Y-68969000D01*
X146324977Y-68969000D01*
X146760853Y-68882299D01*
X147130372Y-68635395D01*
X147377276Y-68265876D01*
X147463977Y-67830000D01*
X147377276Y-67394124D01*
X147130372Y-67024605D01*
X146760853Y-66777701D01*
X146324977Y-66691000D01*
X145795023Y-66691000D01*
X145359147Y-66777701D01*
X144989628Y-67024605D01*
X144790000Y-67323370D01*
X144590372Y-67024605D01*
X144220853Y-66777701D01*
X143784977Y-66691000D01*
X143255023Y-66691000D01*
X142819147Y-66777701D01*
X142449628Y-67024605D01*
X142202724Y-67394124D01*
X142116023Y-67830000D01*
X132543387Y-67830000D01*
X132543387Y-65290000D01*
X142116023Y-65290000D01*
X142202724Y-65725876D01*
X142449628Y-66095395D01*
X142819147Y-66342299D01*
X143255023Y-66429000D01*
X143784977Y-66429000D01*
X144220853Y-66342299D01*
X144590372Y-66095395D01*
X144790000Y-65796630D01*
X144989628Y-66095395D01*
X145359147Y-66342299D01*
X145795023Y-66429000D01*
X146324977Y-66429000D01*
X146760853Y-66342299D01*
X147130372Y-66095395D01*
X147377276Y-65725876D01*
X147463977Y-65290000D01*
X147377276Y-64854124D01*
X147130372Y-64484605D01*
X146760853Y-64237701D01*
X146324977Y-64151000D01*
X145795023Y-64151000D01*
X145359147Y-64237701D01*
X144989628Y-64484605D01*
X144790000Y-64783370D01*
X144590372Y-64484605D01*
X144220853Y-64237701D01*
X143784977Y-64151000D01*
X143255023Y-64151000D01*
X142819147Y-64237701D01*
X142449628Y-64484605D01*
X142202724Y-64854124D01*
X142116023Y-65290000D01*
X132543387Y-65290000D01*
X132543387Y-62750000D01*
X142116023Y-62750000D01*
X142202724Y-63185876D01*
X142449628Y-63555395D01*
X142819147Y-63802299D01*
X143255023Y-63889000D01*
X143784977Y-63889000D01*
X144220853Y-63802299D01*
X144590372Y-63555395D01*
X144645716Y-63472567D01*
X144752980Y-63663892D01*
X145184086Y-64003422D01*
X145712308Y-64152130D01*
X145933000Y-63993277D01*
X145933000Y-62877000D01*
X146187000Y-62877000D01*
X146187000Y-63993277D01*
X146407692Y-64152130D01*
X146935914Y-64003422D01*
X147367020Y-63663892D01*
X147635377Y-63185230D01*
X147652220Y-63093070D01*
X147529720Y-62877000D01*
X146187000Y-62877000D01*
X145933000Y-62877000D01*
X145913000Y-62877000D01*
X145913000Y-62623000D01*
X145933000Y-62623000D01*
X145933000Y-61506723D01*
X146187000Y-61506723D01*
X146187000Y-62623000D01*
X147529720Y-62623000D01*
X147652220Y-62406930D01*
X147635377Y-62314770D01*
X147367020Y-61836108D01*
X146935914Y-61496578D01*
X146407692Y-61347870D01*
X146187000Y-61506723D01*
X145933000Y-61506723D01*
X145712308Y-61347870D01*
X145184086Y-61496578D01*
X144752980Y-61836108D01*
X144645716Y-62027433D01*
X144590372Y-61944605D01*
X144220853Y-61697701D01*
X143784977Y-61611000D01*
X143255023Y-61611000D01*
X142819147Y-61697701D01*
X142449628Y-61944605D01*
X142202724Y-62314124D01*
X142116023Y-62750000D01*
X132543387Y-62750000D01*
X132543387Y-60625920D01*
X135188308Y-57981000D01*
X144775639Y-57981000D01*
X145413650Y-58619012D01*
X145413650Y-59146860D01*
X145359147Y-59157701D01*
X144989628Y-59404605D01*
X144904385Y-59532181D01*
X144904385Y-59448000D01*
X144878097Y-59308292D01*
X144795530Y-59179980D01*
X144669547Y-59093899D01*
X144520000Y-59063615D01*
X142520000Y-59063615D01*
X142380292Y-59089903D01*
X142251980Y-59172470D01*
X142165899Y-59298453D01*
X142135615Y-59448000D01*
X142135615Y-60972000D01*
X142161903Y-61111708D01*
X142244470Y-61240020D01*
X142370453Y-61326101D01*
X142520000Y-61356385D01*
X144520000Y-61356385D01*
X144659708Y-61330097D01*
X144788020Y-61247530D01*
X144874101Y-61121547D01*
X144904385Y-60972000D01*
X144904385Y-60887819D01*
X144989628Y-61015395D01*
X145359147Y-61262299D01*
X145795023Y-61349000D01*
X146324977Y-61349000D01*
X146760853Y-61262299D01*
X147130372Y-61015395D01*
X147377276Y-60645876D01*
X147463977Y-60210000D01*
X147377276Y-59774124D01*
X147130372Y-59404605D01*
X146760853Y-59157701D01*
X146675650Y-59140753D01*
X146675650Y-58357643D01*
X146627618Y-58116170D01*
X146627618Y-58116169D01*
X146490834Y-57911458D01*
X145483191Y-56903816D01*
X145278480Y-56767032D01*
X145037007Y-56719000D01*
X134926939Y-56719000D01*
X134725528Y-56759063D01*
X134685465Y-56767032D01*
X134480754Y-56903816D01*
X131466203Y-59918368D01*
X131329419Y-60123079D01*
X131281387Y-60364552D01*
X131281387Y-82119128D01*
X130977529Y-82422987D01*
X130819203Y-82422849D01*
X130496753Y-82556082D01*
X130249833Y-82802571D01*
X130116037Y-83124789D01*
X130115733Y-83473681D01*
X87376979Y-83473681D01*
X87377151Y-83276319D01*
X87243918Y-82953869D01*
X86997429Y-82706949D01*
X86675211Y-82573153D01*
X86515382Y-82573014D01*
X86128097Y-82185729D01*
X86128097Y-62213440D01*
X86080065Y-61971967D01*
X85943281Y-61767256D01*
X83939841Y-59763816D01*
X83735130Y-59627032D01*
X83493657Y-59579000D01*
X76126899Y-59579000D01*
X76010372Y-59404605D01*
X75640853Y-59157701D01*
X75204977Y-59071000D01*
X74675023Y-59071000D01*
X74239147Y-59157701D01*
X73869628Y-59404605D01*
X73784385Y-59532181D01*
X73784385Y-59448000D01*
X73758097Y-59308292D01*
X73675530Y-59179980D01*
X73549547Y-59093899D01*
X73400000Y-59063615D01*
X71400000Y-59063615D01*
X71260292Y-59089903D01*
X71131980Y-59172470D01*
X71045899Y-59298453D01*
X71015615Y-59448000D01*
X71015615Y-60972000D01*
X71041903Y-61111708D01*
X71124470Y-61240020D01*
X71250453Y-61326101D01*
X71400000Y-61356385D01*
X72022062Y-61356385D01*
X71524086Y-61496578D01*
X71092980Y-61836108D01*
X70824623Y-62314770D01*
X70807780Y-62406930D01*
X66205200Y-62406930D01*
X66205200Y-54800200D01*
X151094800Y-54800200D01*
X151094800Y-133544800D01*
X151094800Y-133544800D01*
G37*
X151094800Y-133544800D02*
X112187343Y-133544800D01*
X112187343Y-130669800D01*
X105812658Y-130669800D01*
X105812658Y-133544800D01*
X66205200Y-133544800D01*
X66205200Y-123301926D01*
X71767605Y-123301926D01*
X72114287Y-124140960D01*
X72755663Y-124783457D01*
X73594091Y-125131603D01*
X74501926Y-125132395D01*
X75340960Y-124785713D01*
X75983457Y-124144337D01*
X76331603Y-123305909D01*
X76331804Y-123075171D01*
X81552803Y-123075171D01*
X81725536Y-123493217D01*
X82045100Y-123813340D01*
X82462845Y-123986802D01*
X82915171Y-123987197D01*
X83333217Y-123814464D01*
X83653340Y-123494900D01*
X83826802Y-123077155D01*
X83827197Y-122624829D01*
X83654464Y-122206783D01*
X83334900Y-121886660D01*
X82917155Y-121713198D01*
X82464829Y-121712803D01*
X82046783Y-121885536D01*
X81726660Y-122205100D01*
X81553198Y-122622845D01*
X81552803Y-123075171D01*
X76331804Y-123075171D01*
X76332395Y-122398074D01*
X75985713Y-121559040D01*
X75344337Y-120916543D01*
X74505909Y-120568397D01*
X73598074Y-120567605D01*
X72759040Y-120914287D01*
X72116543Y-121555663D01*
X71768397Y-122394091D01*
X71767605Y-123301926D01*
X66205200Y-123301926D01*
X66205200Y-119550000D01*
X80145615Y-119550000D01*
X80145615Y-121070000D01*
X80171903Y-121209708D01*
X80254470Y-121338020D01*
X80380453Y-121424101D01*
X80530000Y-121454385D01*
X82050000Y-121454385D01*
X82189708Y-121428097D01*
X82318020Y-121345530D01*
X82404101Y-121219547D01*
X82434385Y-121070000D01*
X82434385Y-120535171D01*
X82942803Y-120535171D01*
X83115536Y-120953217D01*
X83435100Y-121273340D01*
X83852845Y-121446802D01*
X84305171Y-121447197D01*
X84723217Y-121274464D01*
X84925200Y-121072834D01*
X84925200Y-121849003D01*
X84836783Y-121885536D01*
X84516660Y-122205100D01*
X84343198Y-122622845D01*
X84342803Y-123075171D01*
X84515536Y-123493217D01*
X84835100Y-123813340D01*
X85252845Y-123986802D01*
X85705171Y-123987197D01*
X86123217Y-123814464D01*
X86443340Y-123494900D01*
X86616802Y-123077155D01*
X86616803Y-123075171D01*
X87012803Y-123075171D01*
X87185536Y-123493217D01*
X87505100Y-123813340D01*
X87922845Y-123986802D01*
X88375171Y-123987197D01*
X88793217Y-123814464D01*
X89113340Y-123494900D01*
X89286802Y-123077155D01*
X89286803Y-123075171D01*
X89802803Y-123075171D01*
X89975536Y-123493217D01*
X90295100Y-123813340D01*
X90712845Y-123986802D01*
X91165171Y-123987197D01*
X91583217Y-123814464D01*
X91903340Y-123494900D01*
X91983469Y-123301926D01*
X97167605Y-123301926D01*
X97514287Y-124140960D01*
X98155663Y-124783457D01*
X98994091Y-125131603D01*
X99901926Y-125132395D01*
X100740960Y-124785713D01*
X101383457Y-124144337D01*
X101731603Y-123305909D01*
X101731606Y-123301926D01*
X115227605Y-123301926D01*
X115574287Y-124140960D01*
X116215663Y-124783457D01*
X117054091Y-125131603D01*
X117961926Y-125132395D01*
X118800960Y-124785713D01*
X119443457Y-124144337D01*
X119791603Y-123305909D01*
X119791804Y-123075171D01*
X125012803Y-123075171D01*
X125185536Y-123493217D01*
X125505100Y-123813340D01*
X125922845Y-123986802D01*
X126375171Y-123987197D01*
X126793217Y-123814464D01*
X127113340Y-123494900D01*
X127286802Y-123077155D01*
X127287197Y-122624829D01*
X127114464Y-122206783D01*
X126794900Y-121886660D01*
X126377155Y-121713198D01*
X125924829Y-121712803D01*
X125506783Y-121885536D01*
X125186660Y-122205100D01*
X125013198Y-122622845D01*
X125012803Y-123075171D01*
X119791804Y-123075171D01*
X119792395Y-122398074D01*
X119445713Y-121559040D01*
X118804337Y-120916543D01*
X117965909Y-120568397D01*
X117058074Y-120567605D01*
X116219040Y-120914287D01*
X115576543Y-121555663D01*
X115228397Y-122394091D01*
X115227605Y-123301926D01*
X101731606Y-123301926D01*
X101732395Y-122398074D01*
X101385713Y-121559040D01*
X100744337Y-120916543D01*
X99905909Y-120568397D01*
X98998074Y-120567605D01*
X98159040Y-120914287D01*
X97516543Y-121555663D01*
X97168397Y-122394091D01*
X97167605Y-123301926D01*
X91983469Y-123301926D01*
X92076802Y-123077155D01*
X92077197Y-122624829D01*
X91904464Y-122206783D01*
X91584900Y-121886660D01*
X91167155Y-121713198D01*
X90714829Y-121712803D01*
X90296783Y-121885536D01*
X89976660Y-122205100D01*
X89803198Y-122622845D01*
X89802803Y-123075171D01*
X89286803Y-123075171D01*
X89287197Y-122624829D01*
X89114464Y-122206783D01*
X88794900Y-121886660D01*
X88377155Y-121713198D01*
X87924829Y-121712803D01*
X87506783Y-121885536D01*
X87186660Y-122205100D01*
X87013198Y-122622845D01*
X87012803Y-123075171D01*
X86616803Y-123075171D01*
X86617197Y-122624829D01*
X86444464Y-122206783D01*
X86124900Y-121886660D01*
X86034800Y-121849247D01*
X86034800Y-121334808D01*
X86080842Y-121288766D01*
X86150059Y-121530742D01*
X86672780Y-121717155D01*
X87227049Y-121689341D01*
X87609941Y-121530742D01*
X87679159Y-121288764D01*
X86880000Y-120489605D01*
X86865858Y-120503748D01*
X86686253Y-120324143D01*
X86700395Y-120310000D01*
X87059605Y-120310000D01*
X87858764Y-121109159D01*
X88100742Y-121039941D01*
X88280753Y-120535171D01*
X88402803Y-120535171D01*
X88575536Y-120953217D01*
X88895100Y-121273340D01*
X89312845Y-121446802D01*
X89765171Y-121447197D01*
X90183217Y-121274464D01*
X90503340Y-120954900D01*
X90676802Y-120537155D01*
X90676803Y-120535171D01*
X91202803Y-120535171D01*
X91375536Y-120953217D01*
X91695100Y-121273340D01*
X92112845Y-121446802D01*
X92565171Y-121447197D01*
X92983217Y-121274464D01*
X93303340Y-120954900D01*
X93476802Y-120537155D01*
X93477197Y-120084829D01*
X93304464Y-119666783D01*
X93187885Y-119550000D01*
X123605615Y-119550000D01*
X123605615Y-121070000D01*
X123631903Y-121209708D01*
X123714470Y-121338020D01*
X123840453Y-121424101D01*
X123990000Y-121454385D01*
X125510000Y-121454385D01*
X125649708Y-121428097D01*
X125778020Y-121345530D01*
X125864101Y-121219547D01*
X125894385Y-121070000D01*
X125894385Y-119550000D01*
X125868097Y-119410292D01*
X125785530Y-119281980D01*
X125659547Y-119195899D01*
X125510000Y-119165615D01*
X123990000Y-119165615D01*
X123850292Y-119191903D01*
X123721980Y-119274470D01*
X123635899Y-119400453D01*
X123605615Y-119550000D01*
X93187885Y-119550000D01*
X92984900Y-119346660D01*
X92567155Y-119173198D01*
X92114829Y-119172803D01*
X91696783Y-119345536D01*
X91376660Y-119665100D01*
X91203198Y-120082845D01*
X91202803Y-120535171D01*
X90676803Y-120535171D01*
X90677197Y-120084829D01*
X90504464Y-119666783D01*
X90184900Y-119346660D01*
X89767155Y-119173198D01*
X89314829Y-119172803D01*
X88896783Y-119345536D01*
X88576660Y-119665100D01*
X88403198Y-120082845D01*
X88402803Y-120535171D01*
X88280753Y-120535171D01*
X88287155Y-120517220D01*
X88259341Y-119962951D01*
X88100742Y-119580059D01*
X87858764Y-119510841D01*
X87059605Y-120310000D01*
X86700395Y-120310000D01*
X86686253Y-120295858D01*
X86865858Y-120116253D01*
X86880000Y-120130395D01*
X87679159Y-119331236D01*
X87609941Y-119089258D01*
X87087220Y-118902845D01*
X86532951Y-118930659D01*
X86150059Y-119089258D01*
X86080842Y-119331234D01*
X86034800Y-119285192D01*
X86034800Y-113594435D01*
X93954576Y-105639235D01*
X94011531Y-105553583D01*
X94068501Y-105468322D01*
X94068618Y-105467732D01*
X94068952Y-105467230D01*
X94088742Y-105366562D01*
X94108799Y-105265729D01*
X94108799Y-90123797D01*
X94423131Y-89993918D01*
X94670051Y-89747429D01*
X94803847Y-89425211D01*
X94803848Y-89423681D01*
X122095849Y-89423681D01*
X122229082Y-89746131D01*
X122475571Y-89993051D01*
X122791201Y-90124111D01*
X122791201Y-99465727D01*
X122831499Y-99668320D01*
X122946259Y-99840069D01*
X127841318Y-104735132D01*
X127816391Y-116067635D01*
X127816506Y-116068218D01*
X127816390Y-116068799D01*
X127816390Y-118186060D01*
X127255953Y-118746497D01*
X127147697Y-118818831D01*
X127027432Y-118998821D01*
X126985200Y-119211134D01*
X126985200Y-119309003D01*
X126896783Y-119345536D01*
X126576660Y-119665100D01*
X126403198Y-120082845D01*
X126402803Y-120535171D01*
X126575536Y-120953217D01*
X126895100Y-121273340D01*
X127312845Y-121446802D01*
X127765171Y-121447197D01*
X128183217Y-121274464D01*
X128410600Y-121047478D01*
X128410600Y-121838508D01*
X128296783Y-121885536D01*
X127976660Y-122205100D01*
X127803198Y-122622845D01*
X127802803Y-123075171D01*
X127975536Y-123493217D01*
X128295100Y-123813340D01*
X128712845Y-123986802D01*
X129165171Y-123987197D01*
X129583217Y-123814464D01*
X129903340Y-123494900D01*
X130076802Y-123077155D01*
X130076803Y-123075171D01*
X130472803Y-123075171D01*
X130645536Y-123493217D01*
X130965100Y-123813340D01*
X131382845Y-123986802D01*
X131835171Y-123987197D01*
X132253217Y-123814464D01*
X132573340Y-123494900D01*
X132746802Y-123077155D01*
X132746803Y-123075171D01*
X133262803Y-123075171D01*
X133435536Y-123493217D01*
X133755100Y-123813340D01*
X134172845Y-123986802D01*
X134625171Y-123987197D01*
X135043217Y-123814464D01*
X135363340Y-123494900D01*
X135443469Y-123301926D01*
X140627605Y-123301926D01*
X140974287Y-124140960D01*
X141615663Y-124783457D01*
X142454091Y-125131603D01*
X143361926Y-125132395D01*
X144200960Y-124785713D01*
X144843457Y-124144337D01*
X145191603Y-123305909D01*
X145192395Y-122398074D01*
X144845713Y-121559040D01*
X144204337Y-120916543D01*
X143365909Y-120568397D01*
X142458074Y-120567605D01*
X141619040Y-120914287D01*
X140976543Y-121555663D01*
X140628397Y-122394091D01*
X140627605Y-123301926D01*
X135443469Y-123301926D01*
X135536802Y-123077155D01*
X135537197Y-122624829D01*
X135364464Y-122206783D01*
X135044900Y-121886660D01*
X134627155Y-121713198D01*
X134174829Y-121712803D01*
X133756783Y-121885536D01*
X133436660Y-122205100D01*
X133263198Y-122622845D01*
X133262803Y-123075171D01*
X132746803Y-123075171D01*
X132747197Y-122624829D01*
X132574464Y-122206783D01*
X132254900Y-121886660D01*
X131837155Y-121713198D01*
X131384829Y-121712803D01*
X130966783Y-121885536D01*
X130646660Y-122205100D01*
X130473198Y-122622845D01*
X130472803Y-123075171D01*
X130076803Y-123075171D01*
X130077197Y-122624829D01*
X129904464Y-122206783D01*
X129584900Y-121886660D01*
X129469400Y-121838700D01*
X129469400Y-121360208D01*
X129540842Y-121288766D01*
X129610059Y-121530742D01*
X130132780Y-121717155D01*
X130687049Y-121689341D01*
X131069941Y-121530742D01*
X131139159Y-121288764D01*
X130340000Y-120489605D01*
X130325858Y-120503748D01*
X130146253Y-120324143D01*
X130160395Y-120310000D01*
X130519605Y-120310000D01*
X131318764Y-121109159D01*
X131560742Y-121039941D01*
X131740753Y-120535171D01*
X131862803Y-120535171D01*
X132035536Y-120953217D01*
X132355100Y-121273340D01*
X132772845Y-121446802D01*
X133225171Y-121447197D01*
X133643217Y-121274464D01*
X133963340Y-120954900D01*
X134136802Y-120537155D01*
X134136803Y-120535171D01*
X134662803Y-120535171D01*
X134835536Y-120953217D01*
X135155100Y-121273340D01*
X135572845Y-121446802D01*
X136025171Y-121447197D01*
X136443217Y-121274464D01*
X136763340Y-120954900D01*
X136936802Y-120537155D01*
X136937197Y-120084829D01*
X136764464Y-119666783D01*
X136444900Y-119346660D01*
X136027155Y-119173198D01*
X135574829Y-119172803D01*
X135156783Y-119345536D01*
X134836660Y-119665100D01*
X134663198Y-120082845D01*
X134662803Y-120535171D01*
X134136803Y-120535171D01*
X134137197Y-120084829D01*
X133964464Y-119666783D01*
X133644900Y-119346660D01*
X133227155Y-119173198D01*
X132774829Y-119172803D01*
X132356783Y-119345536D01*
X132036660Y-119665100D01*
X131863198Y-120082845D01*
X131862803Y-120535171D01*
X131740753Y-120535171D01*
X131747155Y-120517220D01*
X131719341Y-119962951D01*
X131560742Y-119580059D01*
X131318764Y-119510841D01*
X130519605Y-120310000D01*
X130160395Y-120310000D01*
X130146253Y-120295858D01*
X130325858Y-120116253D01*
X130340000Y-120130395D01*
X131139159Y-119331236D01*
X131069941Y-119089258D01*
X130547220Y-118902845D01*
X129992951Y-118930659D01*
X129610059Y-119089258D01*
X129540842Y-119331234D01*
X129469348Y-119259740D01*
X129459400Y-119209726D01*
X129459400Y-105930000D01*
X142116023Y-105930000D01*
X142202724Y-106365876D01*
X142449628Y-106735395D01*
X142819147Y-106982299D01*
X143255023Y-107069000D01*
X143784977Y-107069000D01*
X144220853Y-106982299D01*
X144590372Y-106735395D01*
X144645716Y-106652567D01*
X144752980Y-106843892D01*
X145184086Y-107183422D01*
X145242972Y-107200000D01*
X145184086Y-107216578D01*
X144752980Y-107556108D01*
X144645716Y-107747433D01*
X144590372Y-107664605D01*
X144220853Y-107417701D01*
X143784977Y-107331000D01*
X143255023Y-107331000D01*
X142819147Y-107417701D01*
X142449628Y-107664605D01*
X142202724Y-108034124D01*
X142116023Y-108470000D01*
X142202724Y-108905876D01*
X142449628Y-109275395D01*
X142819147Y-109522299D01*
X143255023Y-109609000D01*
X143784977Y-109609000D01*
X144220853Y-109522299D01*
X144590372Y-109275395D01*
X144645716Y-109192567D01*
X144752980Y-109383892D01*
X145184086Y-109723422D01*
X145712308Y-109872130D01*
X145933000Y-109713277D01*
X145933000Y-108597000D01*
X146187000Y-108597000D01*
X146187000Y-109713277D01*
X146407692Y-109872130D01*
X146935914Y-109723422D01*
X147367020Y-109383892D01*
X147635377Y-108905230D01*
X147652220Y-108813070D01*
X147529720Y-108597000D01*
X146187000Y-108597000D01*
X145933000Y-108597000D01*
X145913000Y-108597000D01*
X145913000Y-108343000D01*
X145933000Y-108343000D01*
X145933000Y-107226723D01*
X145895874Y-107200000D01*
X145933000Y-107173277D01*
X145933000Y-106057000D01*
X146187000Y-106057000D01*
X146187000Y-107173277D01*
X146224126Y-107200000D01*
X146187000Y-107226723D01*
X146187000Y-108343000D01*
X147529720Y-108343000D01*
X147652220Y-108126930D01*
X147635377Y-108034770D01*
X147367020Y-107556108D01*
X146935914Y-107216578D01*
X146877028Y-107200000D01*
X146935914Y-107183422D01*
X147367020Y-106843892D01*
X147635377Y-106365230D01*
X147652220Y-106273070D01*
X147529720Y-106057000D01*
X146187000Y-106057000D01*
X145933000Y-106057000D01*
X145913000Y-106057000D01*
X145913000Y-105803000D01*
X145933000Y-105803000D01*
X145933000Y-104686723D01*
X146187000Y-104686723D01*
X146187000Y-105803000D01*
X147529720Y-105803000D01*
X147652220Y-105586930D01*
X147635377Y-105494770D01*
X147367020Y-105016108D01*
X146935914Y-104676578D01*
X146407692Y-104527870D01*
X146187000Y-104686723D01*
X145933000Y-104686723D01*
X145712308Y-104527870D01*
X145184086Y-104676578D01*
X144752980Y-105016108D01*
X144645716Y-105207433D01*
X144590372Y-105124605D01*
X144220853Y-104877701D01*
X143784977Y-104791000D01*
X143255023Y-104791000D01*
X142819147Y-104877701D01*
X142449628Y-105124605D01*
X142202724Y-105494124D01*
X142116023Y-105930000D01*
X129459400Y-105930000D01*
X129459400Y-104284870D01*
X129419102Y-104082277D01*
X129304342Y-103910527D01*
X128783815Y-103390000D01*
X142116023Y-103390000D01*
X142202724Y-103825876D01*
X142449628Y-104195395D01*
X142819147Y-104442299D01*
X143255023Y-104529000D01*
X143784977Y-104529000D01*
X144220853Y-104442299D01*
X144590372Y-104195395D01*
X144790000Y-103896630D01*
X144989628Y-104195395D01*
X145359147Y-104442299D01*
X145795023Y-104529000D01*
X146324977Y-104529000D01*
X146760853Y-104442299D01*
X147130372Y-104195395D01*
X147377276Y-103825876D01*
X147463977Y-103390000D01*
X147377276Y-102954124D01*
X147130372Y-102584605D01*
X146760853Y-102337701D01*
X146324977Y-102251000D01*
X145795023Y-102251000D01*
X145359147Y-102337701D01*
X144989628Y-102584605D01*
X144790000Y-102883370D01*
X144590372Y-102584605D01*
X144220853Y-102337701D01*
X143784977Y-102251000D01*
X143255023Y-102251000D01*
X142819147Y-102337701D01*
X142449628Y-102584605D01*
X142202724Y-102954124D01*
X142116023Y-103390000D01*
X128783815Y-103390000D01*
X126243815Y-100850000D01*
X142116023Y-100850000D01*
X142202724Y-101285876D01*
X142449628Y-101655395D01*
X142819147Y-101902299D01*
X143255023Y-101989000D01*
X143784977Y-101989000D01*
X144220853Y-101902299D01*
X144590372Y-101655395D01*
X144790000Y-101356630D01*
X144989628Y-101655395D01*
X145359147Y-101902299D01*
X145795023Y-101989000D01*
X146324977Y-101989000D01*
X146760853Y-101902299D01*
X147130372Y-101655395D01*
X147377276Y-101285876D01*
X147463977Y-100850000D01*
X147377276Y-100414124D01*
X147130372Y-100044605D01*
X146760853Y-99797701D01*
X146324977Y-99711000D01*
X145795023Y-99711000D01*
X145359147Y-99797701D01*
X144989628Y-100044605D01*
X144790000Y-100343370D01*
X144590372Y-100044605D01*
X144220853Y-99797701D01*
X143784977Y-99711000D01*
X143255023Y-99711000D01*
X142819147Y-99797701D01*
X142449628Y-100044605D01*
X142202724Y-100414124D01*
X142116023Y-100850000D01*
X126243815Y-100850000D01*
X124408799Y-99014985D01*
X124408799Y-90123797D01*
X124723131Y-89993918D01*
X124970051Y-89747429D01*
X125103847Y-89425211D01*
X125104151Y-89076319D01*
X124970918Y-88753869D01*
X124724429Y-88506949D01*
X124402211Y-88373153D01*
X124053319Y-88372849D01*
X123730869Y-88506082D01*
X123599988Y-88636735D01*
X123470429Y-88506949D01*
X123148211Y-88373153D01*
X122799319Y-88372849D01*
X122476869Y-88506082D01*
X122229949Y-88752571D01*
X122096153Y-89074789D01*
X122095849Y-89423681D01*
X94803848Y-89423681D01*
X94804151Y-89076319D01*
X94670918Y-88753869D01*
X94424429Y-88506949D01*
X94102211Y-88373153D01*
X93753319Y-88372849D01*
X93430869Y-88506082D01*
X93299988Y-88636735D01*
X93170429Y-88506949D01*
X92848211Y-88373153D01*
X92499319Y-88372849D01*
X92176869Y-88506082D01*
X91929949Y-88752571D01*
X91796153Y-89074789D01*
X91795849Y-89423681D01*
X91929082Y-89746131D01*
X92175571Y-89993051D01*
X92491201Y-90124111D01*
X92491201Y-104814271D01*
X84904112Y-112366554D01*
X84794598Y-112439729D01*
X84216733Y-113017594D01*
X84096468Y-113197584D01*
X84054236Y-113409897D01*
X84054236Y-119172977D01*
X83854829Y-119172803D01*
X83436783Y-119345536D01*
X83116660Y-119665100D01*
X82943198Y-120082845D01*
X82942803Y-120535171D01*
X82434385Y-120535171D01*
X82434385Y-119550000D01*
X82408097Y-119410292D01*
X82325530Y-119281980D01*
X82199547Y-119195899D01*
X82050000Y-119165615D01*
X80530000Y-119165615D01*
X80390292Y-119191903D01*
X80261980Y-119274470D01*
X80175899Y-119400453D01*
X80145615Y-119550000D01*
X66205200Y-119550000D01*
X66205200Y-108813070D01*
X70807780Y-108813070D01*
X70824623Y-108905230D01*
X71092980Y-109383892D01*
X71524086Y-109723422D01*
X72052308Y-109872130D01*
X72273000Y-109713277D01*
X72273000Y-108597000D01*
X70930280Y-108597000D01*
X70807780Y-108813070D01*
X66205200Y-108813070D01*
X66205200Y-106273070D01*
X70807780Y-106273070D01*
X70824623Y-106365230D01*
X71092980Y-106843892D01*
X71524086Y-107183422D01*
X71582972Y-107200000D01*
X71524086Y-107216578D01*
X71092980Y-107556108D01*
X70824623Y-108034770D01*
X70807780Y-108126930D01*
X70930280Y-108343000D01*
X72273000Y-108343000D01*
X72273000Y-107226723D01*
X72235874Y-107200000D01*
X72273000Y-107173277D01*
X72273000Y-106057000D01*
X70930280Y-106057000D01*
X70807780Y-106273070D01*
X66205200Y-106273070D01*
X66205200Y-105586930D01*
X70807780Y-105586930D01*
X70930280Y-105803000D01*
X72273000Y-105803000D01*
X72273000Y-104686723D01*
X72527000Y-104686723D01*
X72527000Y-105803000D01*
X72547000Y-105803000D01*
X72547000Y-106057000D01*
X72527000Y-106057000D01*
X72527000Y-107173277D01*
X72564126Y-107200000D01*
X72527000Y-107226723D01*
X72527000Y-108343000D01*
X72547000Y-108343000D01*
X72547000Y-108597000D01*
X72527000Y-108597000D01*
X72527000Y-109713277D01*
X72747692Y-109872130D01*
X73275914Y-109723422D01*
X73707020Y-109383892D01*
X73814284Y-109192567D01*
X73869628Y-109275395D01*
X74239147Y-109522299D01*
X74675023Y-109609000D01*
X75204977Y-109609000D01*
X75640853Y-109522299D01*
X76010372Y-109275395D01*
X76257276Y-108905876D01*
X76343977Y-108470000D01*
X76257276Y-108034124D01*
X76010372Y-107664605D01*
X75640853Y-107417701D01*
X75204977Y-107331000D01*
X74675023Y-107331000D01*
X74239147Y-107417701D01*
X73869628Y-107664605D01*
X73814284Y-107747433D01*
X73707020Y-107556108D01*
X73275914Y-107216578D01*
X73217028Y-107200000D01*
X73275914Y-107183422D01*
X73707020Y-106843892D01*
X73814284Y-106652567D01*
X73869628Y-106735395D01*
X74239147Y-106982299D01*
X74675023Y-107069000D01*
X75204977Y-107069000D01*
X75640853Y-106982299D01*
X76010372Y-106735395D01*
X76257276Y-106365876D01*
X76343977Y-105930000D01*
X76257276Y-105494124D01*
X76010372Y-105124605D01*
X75640853Y-104877701D01*
X75204977Y-104791000D01*
X74675023Y-104791000D01*
X74239147Y-104877701D01*
X73869628Y-105124605D01*
X73814284Y-105207433D01*
X73707020Y-105016108D01*
X73275914Y-104676578D01*
X72747692Y-104527870D01*
X72527000Y-104686723D01*
X72273000Y-104686723D01*
X72052308Y-104527870D01*
X71524086Y-104676578D01*
X71092980Y-105016108D01*
X70824623Y-105494770D01*
X70807780Y-105586930D01*
X66205200Y-105586930D01*
X66205200Y-103390000D01*
X70996023Y-103390000D01*
X71082724Y-103825876D01*
X71329628Y-104195395D01*
X71699147Y-104442299D01*
X72135023Y-104529000D01*
X72664977Y-104529000D01*
X73100853Y-104442299D01*
X73470372Y-104195395D01*
X73670000Y-103896630D01*
X73869628Y-104195395D01*
X74239147Y-104442299D01*
X74675023Y-104529000D01*
X75204977Y-104529000D01*
X75640853Y-104442299D01*
X76010372Y-104195395D01*
X76257276Y-103825876D01*
X76343977Y-103390000D01*
X76257276Y-102954124D01*
X76010372Y-102584605D01*
X75640853Y-102337701D01*
X75204977Y-102251000D01*
X74675023Y-102251000D01*
X74239147Y-102337701D01*
X73869628Y-102584605D01*
X73670000Y-102883370D01*
X73470372Y-102584605D01*
X73100853Y-102337701D01*
X72664977Y-102251000D01*
X72135023Y-102251000D01*
X71699147Y-102337701D01*
X71329628Y-102584605D01*
X71082724Y-102954124D01*
X70996023Y-103390000D01*
X66205200Y-103390000D01*
X66205200Y-100850000D01*
X70996023Y-100850000D01*
X71082724Y-101285876D01*
X71329628Y-101655395D01*
X71699147Y-101902299D01*
X72135023Y-101989000D01*
X72664977Y-101989000D01*
X73100853Y-101902299D01*
X73470372Y-101655395D01*
X73670000Y-101356630D01*
X73869628Y-101655395D01*
X74239147Y-101902299D01*
X74675023Y-101989000D01*
X75204977Y-101989000D01*
X75640853Y-101902299D01*
X76010372Y-101655395D01*
X76257276Y-101285876D01*
X76343977Y-100850000D01*
X76257276Y-100414124D01*
X76010372Y-100044605D01*
X75640853Y-99797701D01*
X75204977Y-99711000D01*
X74675023Y-99711000D01*
X74239147Y-99797701D01*
X73869628Y-100044605D01*
X73670000Y-100343370D01*
X73470372Y-100044605D01*
X73100853Y-99797701D01*
X72664977Y-99711000D01*
X72135023Y-99711000D01*
X71699147Y-99797701D01*
X71329628Y-100044605D01*
X71082724Y-100414124D01*
X70996023Y-100850000D01*
X66205200Y-100850000D01*
X66205200Y-98310000D01*
X70996023Y-98310000D01*
X71082724Y-98745876D01*
X71329628Y-99115395D01*
X71699147Y-99362299D01*
X72135023Y-99449000D01*
X72664977Y-99449000D01*
X73100853Y-99362299D01*
X73470372Y-99115395D01*
X73670000Y-98816630D01*
X73869628Y-99115395D01*
X74239147Y-99362299D01*
X74675023Y-99449000D01*
X75204977Y-99449000D01*
X75640853Y-99362299D01*
X76010372Y-99115395D01*
X76257276Y-98745876D01*
X76343977Y-98310000D01*
X76257276Y-97874124D01*
X76010372Y-97504605D01*
X75640853Y-97257701D01*
X75204977Y-97171000D01*
X74675023Y-97171000D01*
X74239147Y-97257701D01*
X73869628Y-97504605D01*
X73670000Y-97803370D01*
X73470372Y-97504605D01*
X73100853Y-97257701D01*
X72664977Y-97171000D01*
X72135023Y-97171000D01*
X71699147Y-97257701D01*
X71329628Y-97504605D01*
X71082724Y-97874124D01*
X70996023Y-98310000D01*
X66205200Y-98310000D01*
X66205200Y-95770000D01*
X70996023Y-95770000D01*
X71082724Y-96205876D01*
X71329628Y-96575395D01*
X71699147Y-96822299D01*
X72135023Y-96909000D01*
X72664977Y-96909000D01*
X73100853Y-96822299D01*
X73470372Y-96575395D01*
X73670000Y-96276630D01*
X73869628Y-96575395D01*
X74239147Y-96822299D01*
X74675023Y-96909000D01*
X75204977Y-96909000D01*
X75640853Y-96822299D01*
X76010372Y-96575395D01*
X76257276Y-96205876D01*
X76343977Y-95770000D01*
X76257276Y-95334124D01*
X76010372Y-94964605D01*
X75640853Y-94717701D01*
X75204977Y-94631000D01*
X74675023Y-94631000D01*
X74239147Y-94717701D01*
X73869628Y-94964605D01*
X73670000Y-95263370D01*
X73470372Y-94964605D01*
X73100853Y-94717701D01*
X72664977Y-94631000D01*
X72135023Y-94631000D01*
X71699147Y-94717701D01*
X71329628Y-94964605D01*
X71082724Y-95334124D01*
X70996023Y-95770000D01*
X66205200Y-95770000D01*
X66205200Y-93573070D01*
X70807780Y-93573070D01*
X70824623Y-93665230D01*
X71092980Y-94143892D01*
X71524086Y-94483422D01*
X72052308Y-94632130D01*
X72273000Y-94473277D01*
X72273000Y-93357000D01*
X70930280Y-93357000D01*
X70807780Y-93573070D01*
X66205200Y-93573070D01*
X66205200Y-91033070D01*
X70807780Y-91033070D01*
X70824623Y-91125230D01*
X71092980Y-91603892D01*
X71524086Y-91943422D01*
X71582972Y-91960000D01*
X71524086Y-91976578D01*
X71092980Y-92316108D01*
X70824623Y-92794770D01*
X70807780Y-92886930D01*
X70930280Y-93103000D01*
X72273000Y-93103000D01*
X72273000Y-91986723D01*
X72235874Y-91960000D01*
X72273000Y-91933277D01*
X72273000Y-90817000D01*
X70930280Y-90817000D01*
X70807780Y-91033070D01*
X66205200Y-91033070D01*
X66205200Y-90346930D01*
X70807780Y-90346930D01*
X70930280Y-90563000D01*
X72273000Y-90563000D01*
X72273000Y-89446723D01*
X72527000Y-89446723D01*
X72527000Y-90563000D01*
X72547000Y-90563000D01*
X72547000Y-90817000D01*
X72527000Y-90817000D01*
X72527000Y-91933277D01*
X72564126Y-91960000D01*
X72527000Y-91986723D01*
X72527000Y-93103000D01*
X72547000Y-93103000D01*
X72547000Y-93357000D01*
X72527000Y-93357000D01*
X72527000Y-94473277D01*
X72747692Y-94632130D01*
X73275914Y-94483422D01*
X73707020Y-94143892D01*
X73814284Y-93952567D01*
X73869628Y-94035395D01*
X74239147Y-94282299D01*
X74675023Y-94369000D01*
X75204977Y-94369000D01*
X75640853Y-94282299D01*
X76010372Y-94035395D01*
X76257276Y-93665876D01*
X76343977Y-93230000D01*
X76257276Y-92794124D01*
X76010372Y-92424605D01*
X75640853Y-92177701D01*
X75204977Y-92091000D01*
X74675023Y-92091000D01*
X74239147Y-92177701D01*
X73869628Y-92424605D01*
X73814284Y-92507433D01*
X73707020Y-92316108D01*
X73275914Y-91976578D01*
X73217028Y-91960000D01*
X73275914Y-91943422D01*
X73707020Y-91603892D01*
X73814284Y-91412567D01*
X73869628Y-91495395D01*
X74239147Y-91742299D01*
X74675023Y-91829000D01*
X75204977Y-91829000D01*
X75640853Y-91742299D01*
X76010372Y-91495395D01*
X76257276Y-91125876D01*
X76343977Y-90690000D01*
X76257276Y-90254124D01*
X76010372Y-89884605D01*
X75640853Y-89637701D01*
X75204977Y-89551000D01*
X74675023Y-89551000D01*
X74239147Y-89637701D01*
X73869628Y-89884605D01*
X73814284Y-89967433D01*
X73707020Y-89776108D01*
X73275914Y-89436578D01*
X72747692Y-89287870D01*
X72527000Y-89446723D01*
X72273000Y-89446723D01*
X72052308Y-89287870D01*
X71524086Y-89436578D01*
X71092980Y-89776108D01*
X70824623Y-90254770D01*
X70807780Y-90346930D01*
X66205200Y-90346930D01*
X66205200Y-88150000D01*
X70996023Y-88150000D01*
X71082724Y-88585876D01*
X71329628Y-88955395D01*
X71699147Y-89202299D01*
X72135023Y-89289000D01*
X72664977Y-89289000D01*
X73100853Y-89202299D01*
X73470372Y-88955395D01*
X73670000Y-88656630D01*
X73869628Y-88955395D01*
X74239147Y-89202299D01*
X74675023Y-89289000D01*
X75204977Y-89289000D01*
X75640853Y-89202299D01*
X76010372Y-88955395D01*
X76257276Y-88585876D01*
X76343977Y-88150000D01*
X76257276Y-87714124D01*
X76010372Y-87344605D01*
X75640853Y-87097701D01*
X75204977Y-87011000D01*
X74675023Y-87011000D01*
X74239147Y-87097701D01*
X73869628Y-87344605D01*
X73670000Y-87643370D01*
X73470372Y-87344605D01*
X73100853Y-87097701D01*
X72664977Y-87011000D01*
X72135023Y-87011000D01*
X71699147Y-87097701D01*
X71329628Y-87344605D01*
X71082724Y-87714124D01*
X70996023Y-88150000D01*
X66205200Y-88150000D01*
X66205200Y-85610000D01*
X70996023Y-85610000D01*
X71082724Y-86045876D01*
X71329628Y-86415395D01*
X71699147Y-86662299D01*
X72135023Y-86749000D01*
X72664977Y-86749000D01*
X73100853Y-86662299D01*
X73470372Y-86415395D01*
X73670000Y-86116630D01*
X73869628Y-86415395D01*
X74239147Y-86662299D01*
X74675023Y-86749000D01*
X75204977Y-86749000D01*
X75640853Y-86662299D01*
X76010372Y-86415395D01*
X76257276Y-86045876D01*
X76343977Y-85610000D01*
X76257276Y-85174124D01*
X76010372Y-84804605D01*
X75640853Y-84557701D01*
X75204977Y-84471000D01*
X74675023Y-84471000D01*
X74239147Y-84557701D01*
X73869628Y-84804605D01*
X73670000Y-85103370D01*
X73470372Y-84804605D01*
X73100853Y-84557701D01*
X72664977Y-84471000D01*
X72135023Y-84471000D01*
X71699147Y-84557701D01*
X71329628Y-84804605D01*
X71082724Y-85174124D01*
X70996023Y-85610000D01*
X66205200Y-85610000D01*
X66205200Y-83413070D01*
X70807780Y-83413070D01*
X70824623Y-83505230D01*
X71092980Y-83983892D01*
X71524086Y-84323422D01*
X72052308Y-84472130D01*
X72273000Y-84313277D01*
X72273000Y-83197000D01*
X70930280Y-83197000D01*
X70807780Y-83413070D01*
X66205200Y-83413070D01*
X66205200Y-80873070D01*
X70807780Y-80873070D01*
X70824623Y-80965230D01*
X71092980Y-81443892D01*
X71524086Y-81783422D01*
X71582972Y-81800000D01*
X71524086Y-81816578D01*
X71092980Y-82156108D01*
X70824623Y-82634770D01*
X70807780Y-82726930D01*
X70930280Y-82943000D01*
X72273000Y-82943000D01*
X72273000Y-81826723D01*
X72235874Y-81800000D01*
X72273000Y-81773277D01*
X72273000Y-80657000D01*
X70930280Y-80657000D01*
X70807780Y-80873070D01*
X66205200Y-80873070D01*
X66205200Y-80186930D01*
X70807780Y-80186930D01*
X70930280Y-80403000D01*
X72273000Y-80403000D01*
X72273000Y-79286723D01*
X72527000Y-79286723D01*
X72527000Y-80403000D01*
X72547000Y-80403000D01*
X72547000Y-80657000D01*
X72527000Y-80657000D01*
X72527000Y-81773277D01*
X72564126Y-81800000D01*
X72527000Y-81826723D01*
X72527000Y-82943000D01*
X72547000Y-82943000D01*
X72547000Y-83197000D01*
X72527000Y-83197000D01*
X72527000Y-84313277D01*
X72747692Y-84472130D01*
X73275914Y-84323422D01*
X73707020Y-83983892D01*
X73814284Y-83792567D01*
X73869628Y-83875395D01*
X74239147Y-84122299D01*
X74675023Y-84209000D01*
X75204977Y-84209000D01*
X75640853Y-84122299D01*
X76010372Y-83875395D01*
X76257276Y-83505876D01*
X76343977Y-83070000D01*
X76257276Y-82634124D01*
X76010372Y-82264605D01*
X75640853Y-82017701D01*
X75204977Y-81931000D01*
X74675023Y-81931000D01*
X74239147Y-82017701D01*
X73869628Y-82264605D01*
X73814284Y-82347433D01*
X73707020Y-82156108D01*
X73275914Y-81816578D01*
X73217028Y-81800000D01*
X73275914Y-81783422D01*
X73707020Y-81443892D01*
X73814284Y-81252567D01*
X73869628Y-81335395D01*
X74239147Y-81582299D01*
X74675023Y-81669000D01*
X75204977Y-81669000D01*
X75640853Y-81582299D01*
X76010372Y-81335395D01*
X76257276Y-80965876D01*
X76343977Y-80530000D01*
X76257276Y-80094124D01*
X76010372Y-79724605D01*
X75640853Y-79477701D01*
X75204977Y-79391000D01*
X74675023Y-79391000D01*
X74239147Y-79477701D01*
X73869628Y-79724605D01*
X73814284Y-79807433D01*
X73707020Y-79616108D01*
X73275914Y-79276578D01*
X72747692Y-79127870D01*
X72527000Y-79286723D01*
X72273000Y-79286723D01*
X72052308Y-79127870D01*
X71524086Y-79276578D01*
X71092980Y-79616108D01*
X70824623Y-80094770D01*
X70807780Y-80186930D01*
X66205200Y-80186930D01*
X66205200Y-77990000D01*
X70996023Y-77990000D01*
X71082724Y-78425876D01*
X71329628Y-78795395D01*
X71699147Y-79042299D01*
X72135023Y-79129000D01*
X72664977Y-79129000D01*
X73100853Y-79042299D01*
X73470372Y-78795395D01*
X73670000Y-78496630D01*
X73869628Y-78795395D01*
X74239147Y-79042299D01*
X74675023Y-79129000D01*
X75204977Y-79129000D01*
X75640853Y-79042299D01*
X76010372Y-78795395D01*
X76257276Y-78425876D01*
X76343977Y-77990000D01*
X76257276Y-77554124D01*
X76010372Y-77184605D01*
X75640853Y-76937701D01*
X75204977Y-76851000D01*
X74675023Y-76851000D01*
X74239147Y-76937701D01*
X73869628Y-77184605D01*
X73670000Y-77483370D01*
X73470372Y-77184605D01*
X73100853Y-76937701D01*
X72664977Y-76851000D01*
X72135023Y-76851000D01*
X71699147Y-76937701D01*
X71329628Y-77184605D01*
X71082724Y-77554124D01*
X70996023Y-77990000D01*
X66205200Y-77990000D01*
X66205200Y-75793070D01*
X70807780Y-75793070D01*
X70824623Y-75885230D01*
X71092980Y-76363892D01*
X71524086Y-76703422D01*
X72052308Y-76852130D01*
X72273000Y-76693277D01*
X72273000Y-75577000D01*
X70930280Y-75577000D01*
X70807780Y-75793070D01*
X66205200Y-75793070D01*
X66205200Y-73253070D01*
X70807780Y-73253070D01*
X70824623Y-73345230D01*
X71092980Y-73823892D01*
X71524086Y-74163422D01*
X71582972Y-74180000D01*
X71524086Y-74196578D01*
X71092980Y-74536108D01*
X70824623Y-75014770D01*
X70807780Y-75106930D01*
X70930280Y-75323000D01*
X72273000Y-75323000D01*
X72273000Y-74206723D01*
X72235874Y-74180000D01*
X72273000Y-74153277D01*
X72273000Y-73037000D01*
X70930280Y-73037000D01*
X70807780Y-73253070D01*
X66205200Y-73253070D01*
X66205200Y-72566930D01*
X70807780Y-72566930D01*
X70930280Y-72783000D01*
X72273000Y-72783000D01*
X72273000Y-71666723D01*
X72527000Y-71666723D01*
X72527000Y-72783000D01*
X72547000Y-72783000D01*
X72547000Y-73037000D01*
X72527000Y-73037000D01*
X72527000Y-74153277D01*
X72564126Y-74180000D01*
X72527000Y-74206723D01*
X72527000Y-75323000D01*
X72547000Y-75323000D01*
X72547000Y-75577000D01*
X72527000Y-75577000D01*
X72527000Y-76693277D01*
X72747692Y-76852130D01*
X73275914Y-76703422D01*
X73707020Y-76363892D01*
X73814284Y-76172567D01*
X73869628Y-76255395D01*
X74239147Y-76502299D01*
X74675023Y-76589000D01*
X75204977Y-76589000D01*
X75640853Y-76502299D01*
X76010372Y-76255395D01*
X76257276Y-75885876D01*
X76343977Y-75450000D01*
X76257276Y-75014124D01*
X76010372Y-74644605D01*
X75640853Y-74397701D01*
X75204977Y-74311000D01*
X74675023Y-74311000D01*
X74239147Y-74397701D01*
X73869628Y-74644605D01*
X73814284Y-74727433D01*
X73707020Y-74536108D01*
X73275914Y-74196578D01*
X73217028Y-74180000D01*
X73275914Y-74163422D01*
X73707020Y-73823892D01*
X73814284Y-73632567D01*
X73869628Y-73715395D01*
X74239147Y-73962299D01*
X74675023Y-74049000D01*
X75204977Y-74049000D01*
X75640853Y-73962299D01*
X76010372Y-73715395D01*
X76257276Y-73345876D01*
X76343977Y-72910000D01*
X76257276Y-72474124D01*
X76010372Y-72104605D01*
X75640853Y-71857701D01*
X75204977Y-71771000D01*
X74675023Y-71771000D01*
X74239147Y-71857701D01*
X73869628Y-72104605D01*
X73814284Y-72187433D01*
X73707020Y-71996108D01*
X73275914Y-71656578D01*
X72747692Y-71507870D01*
X72527000Y-71666723D01*
X72273000Y-71666723D01*
X72052308Y-71507870D01*
X71524086Y-71656578D01*
X71092980Y-71996108D01*
X70824623Y-72474770D01*
X70807780Y-72566930D01*
X66205200Y-72566930D01*
X66205200Y-70370000D01*
X70996023Y-70370000D01*
X71082724Y-70805876D01*
X71329628Y-71175395D01*
X71699147Y-71422299D01*
X72135023Y-71509000D01*
X72664977Y-71509000D01*
X73100853Y-71422299D01*
X73470372Y-71175395D01*
X73670000Y-70876630D01*
X73869628Y-71175395D01*
X74239147Y-71422299D01*
X74675023Y-71509000D01*
X75204977Y-71509000D01*
X75640853Y-71422299D01*
X76010372Y-71175395D01*
X76257276Y-70805876D01*
X76343977Y-70370000D01*
X76257276Y-69934124D01*
X76010372Y-69564605D01*
X75640853Y-69317701D01*
X75204977Y-69231000D01*
X74675023Y-69231000D01*
X74239147Y-69317701D01*
X73869628Y-69564605D01*
X73670000Y-69863370D01*
X73470372Y-69564605D01*
X73100853Y-69317701D01*
X72664977Y-69231000D01*
X72135023Y-69231000D01*
X71699147Y-69317701D01*
X71329628Y-69564605D01*
X71082724Y-69934124D01*
X70996023Y-70370000D01*
X66205200Y-70370000D01*
X66205200Y-68173070D01*
X70807780Y-68173070D01*
X70824623Y-68265230D01*
X71092980Y-68743892D01*
X71524086Y-69083422D01*
X72052308Y-69232130D01*
X72273000Y-69073277D01*
X72273000Y-67957000D01*
X70930280Y-67957000D01*
X70807780Y-68173070D01*
X66205200Y-68173070D01*
X66205200Y-65633070D01*
X70807780Y-65633070D01*
X70824623Y-65725230D01*
X71092980Y-66203892D01*
X71524086Y-66543422D01*
X71582972Y-66560000D01*
X71524086Y-66576578D01*
X71092980Y-66916108D01*
X70824623Y-67394770D01*
X70807780Y-67486930D01*
X70930280Y-67703000D01*
X72273000Y-67703000D01*
X72273000Y-66586723D01*
X72235874Y-66560000D01*
X72273000Y-66533277D01*
X72273000Y-65417000D01*
X70930280Y-65417000D01*
X70807780Y-65633070D01*
X66205200Y-65633070D01*
X66205200Y-63093070D01*
X70807780Y-63093070D01*
X70824623Y-63185230D01*
X71092980Y-63663892D01*
X71524086Y-64003422D01*
X71582972Y-64020000D01*
X71524086Y-64036578D01*
X71092980Y-64376108D01*
X70824623Y-64854770D01*
X70807780Y-64946930D01*
X70930280Y-65163000D01*
X72273000Y-65163000D01*
X72273000Y-64046723D01*
X72235874Y-64020000D01*
X72273000Y-63993277D01*
X72273000Y-62877000D01*
X70930280Y-62877000D01*
X70807780Y-63093070D01*
X66205200Y-63093070D01*
X66205200Y-62406930D01*
X70807780Y-62406930D01*
X70930280Y-62623000D01*
X72273000Y-62623000D01*
X72273000Y-62603000D01*
X72527000Y-62603000D01*
X72527000Y-62623000D01*
X72547000Y-62623000D01*
X72547000Y-62877000D01*
X72527000Y-62877000D01*
X72527000Y-63993277D01*
X72564126Y-64020000D01*
X72527000Y-64046723D01*
X72527000Y-65163000D01*
X72547000Y-65163000D01*
X72547000Y-65417000D01*
X72527000Y-65417000D01*
X72527000Y-66533277D01*
X72564126Y-66560000D01*
X72527000Y-66586723D01*
X72527000Y-67703000D01*
X72547000Y-67703000D01*
X72547000Y-67957000D01*
X72527000Y-67957000D01*
X72527000Y-69073277D01*
X72747692Y-69232130D01*
X73275914Y-69083422D01*
X73707020Y-68743892D01*
X73814284Y-68552567D01*
X73869628Y-68635395D01*
X74239147Y-68882299D01*
X74675023Y-68969000D01*
X75204977Y-68969000D01*
X75640853Y-68882299D01*
X76010372Y-68635395D01*
X76257276Y-68265876D01*
X76343977Y-67830000D01*
X76257276Y-67394124D01*
X76010372Y-67024605D01*
X75640853Y-66777701D01*
X75204977Y-66691000D01*
X74675023Y-66691000D01*
X74239147Y-66777701D01*
X73869628Y-67024605D01*
X73814284Y-67107433D01*
X73707020Y-66916108D01*
X73275914Y-66576578D01*
X73217028Y-66560000D01*
X73275914Y-66543422D01*
X73707020Y-66203892D01*
X73814284Y-66012567D01*
X73869628Y-66095395D01*
X74239147Y-66342299D01*
X74675023Y-66429000D01*
X75204977Y-66429000D01*
X75640853Y-66342299D01*
X76010372Y-66095395D01*
X76257276Y-65725876D01*
X76343977Y-65290000D01*
X76257276Y-64854124D01*
X76010372Y-64484605D01*
X75640853Y-64237701D01*
X75204977Y-64151000D01*
X74675023Y-64151000D01*
X74239147Y-64237701D01*
X73869628Y-64484605D01*
X73814284Y-64567433D01*
X73707020Y-64376108D01*
X73275914Y-64036578D01*
X73217028Y-64020000D01*
X73275914Y-64003422D01*
X73707020Y-63663892D01*
X73814284Y-63472567D01*
X73869628Y-63555395D01*
X74239147Y-63802299D01*
X74675023Y-63889000D01*
X75204977Y-63889000D01*
X75640853Y-63802299D01*
X76010372Y-63555395D01*
X76257276Y-63185876D01*
X76343977Y-62750000D01*
X76257276Y-62314124D01*
X76010372Y-61944605D01*
X75640853Y-61697701D01*
X75204977Y-61611000D01*
X74675023Y-61611000D01*
X74239147Y-61697701D01*
X73869628Y-61944605D01*
X73814284Y-62027433D01*
X73707020Y-61836108D01*
X73275914Y-61496578D01*
X72777938Y-61356385D01*
X73400000Y-61356385D01*
X73539708Y-61330097D01*
X73668020Y-61247530D01*
X73754101Y-61121547D01*
X73784385Y-60972000D01*
X73784385Y-60887819D01*
X73869628Y-61015395D01*
X74239147Y-61262299D01*
X74675023Y-61349000D01*
X75204977Y-61349000D01*
X75640853Y-61262299D01*
X76010372Y-61015395D01*
X76126899Y-60841000D01*
X83232289Y-60841000D01*
X84866097Y-62474808D01*
X84866097Y-82447097D01*
X84903299Y-82634124D01*
X84914129Y-82688570D01*
X85050913Y-82893281D01*
X85622987Y-83465355D01*
X85622849Y-83623681D01*
X85756082Y-83946131D01*
X86002571Y-84193051D01*
X86324789Y-84326847D01*
X86673681Y-84327151D01*
X86996131Y-84193918D01*
X87243051Y-83947429D01*
X87376847Y-83625211D01*
X87376979Y-83473681D01*
X130115733Y-83473681D01*
X130248966Y-83796131D01*
X130495455Y-84043051D01*
X130817673Y-84176847D01*
X131166565Y-84177151D01*
X131489015Y-84043918D01*
X131735935Y-83797429D01*
X131869731Y-83475211D01*
X131869870Y-83315382D01*
X132115252Y-83070000D01*
X142116023Y-83070000D01*
X142202724Y-83505876D01*
X142449628Y-83875395D01*
X142819147Y-84122299D01*
X143255023Y-84209000D01*
X143784977Y-84209000D01*
X144220853Y-84122299D01*
X144590372Y-83875395D01*
X144645716Y-83792567D01*
X144752980Y-83983892D01*
X145184086Y-84323422D01*
X145242972Y-84340000D01*
X145184086Y-84356578D01*
X144752980Y-84696108D01*
X144645716Y-84887433D01*
X144590372Y-84804605D01*
X144220853Y-84557701D01*
X143784977Y-84471000D01*
X143255023Y-84471000D01*
X142819147Y-84557701D01*
X142449628Y-84804605D01*
X142202724Y-85174124D01*
X142116023Y-85610000D01*
X142202724Y-86045876D01*
X142449628Y-86415395D01*
X142819147Y-86662299D01*
X143255023Y-86749000D01*
X143784977Y-86749000D01*
X144220853Y-86662299D01*
X144590372Y-86415395D01*
X144645716Y-86332567D01*
X144752980Y-86523892D01*
X145184086Y-86863422D01*
X145242972Y-86880000D01*
X145184086Y-86896578D01*
X144752980Y-87236108D01*
X144645716Y-87427433D01*
X144590372Y-87344605D01*
X144220853Y-87097701D01*
X143784977Y-87011000D01*
X143255023Y-87011000D01*
X142819147Y-87097701D01*
X142449628Y-87344605D01*
X142202724Y-87714124D01*
X142116023Y-88150000D01*
X142202724Y-88585876D01*
X142449628Y-88955395D01*
X142819147Y-89202299D01*
X143255023Y-89289000D01*
X143784977Y-89289000D01*
X144220853Y-89202299D01*
X144590372Y-88955395D01*
X144645716Y-88872567D01*
X144752980Y-89063892D01*
X145184086Y-89403422D01*
X145242972Y-89420000D01*
X145184086Y-89436578D01*
X144752980Y-89776108D01*
X144645716Y-89967433D01*
X144590372Y-89884605D01*
X144220853Y-89637701D01*
X143784977Y-89551000D01*
X143255023Y-89551000D01*
X142819147Y-89637701D01*
X142449628Y-89884605D01*
X142202724Y-90254124D01*
X142116023Y-90690000D01*
X142202724Y-91125876D01*
X142449628Y-91495395D01*
X142819147Y-91742299D01*
X143255023Y-91829000D01*
X143784977Y-91829000D01*
X144220853Y-91742299D01*
X144590372Y-91495395D01*
X144645716Y-91412567D01*
X144752980Y-91603892D01*
X145184086Y-91943422D01*
X145242972Y-91960000D01*
X145184086Y-91976578D01*
X144752980Y-92316108D01*
X144645716Y-92507433D01*
X144590372Y-92424605D01*
X144220853Y-92177701D01*
X143784977Y-92091000D01*
X143255023Y-92091000D01*
X142819147Y-92177701D01*
X142449628Y-92424605D01*
X142202724Y-92794124D01*
X142116023Y-93230000D01*
X142202724Y-93665876D01*
X142449628Y-94035395D01*
X142819147Y-94282299D01*
X143255023Y-94369000D01*
X143784977Y-94369000D01*
X144220853Y-94282299D01*
X144590372Y-94035395D01*
X144645716Y-93952567D01*
X144752980Y-94143892D01*
X145184086Y-94483422D01*
X145242972Y-94500000D01*
X145184086Y-94516578D01*
X144752980Y-94856108D01*
X144645716Y-95047433D01*
X144590372Y-94964605D01*
X144220853Y-94717701D01*
X143784977Y-94631000D01*
X143255023Y-94631000D01*
X142819147Y-94717701D01*
X142449628Y-94964605D01*
X142202724Y-95334124D01*
X142116023Y-95770000D01*
X142202724Y-96205876D01*
X142449628Y-96575395D01*
X142819147Y-96822299D01*
X143255023Y-96909000D01*
X143784977Y-96909000D01*
X144220853Y-96822299D01*
X144590372Y-96575395D01*
X144645716Y-96492567D01*
X144752980Y-96683892D01*
X145184086Y-97023422D01*
X145242972Y-97040000D01*
X145184086Y-97056578D01*
X144752980Y-97396108D01*
X144645716Y-97587433D01*
X144590372Y-97504605D01*
X144220853Y-97257701D01*
X143784977Y-97171000D01*
X143255023Y-97171000D01*
X142819147Y-97257701D01*
X142449628Y-97504605D01*
X142202724Y-97874124D01*
X142116023Y-98310000D01*
X142202724Y-98745876D01*
X142449628Y-99115395D01*
X142819147Y-99362299D01*
X143255023Y-99449000D01*
X143784977Y-99449000D01*
X144220853Y-99362299D01*
X144590372Y-99115395D01*
X144645716Y-99032567D01*
X144752980Y-99223892D01*
X145184086Y-99563422D01*
X145712308Y-99712130D01*
X145933000Y-99553277D01*
X145933000Y-98437000D01*
X146187000Y-98437000D01*
X146187000Y-99553277D01*
X146407692Y-99712130D01*
X146935914Y-99563422D01*
X147367020Y-99223892D01*
X147635377Y-98745230D01*
X147652220Y-98653070D01*
X147529720Y-98437000D01*
X146187000Y-98437000D01*
X145933000Y-98437000D01*
X145913000Y-98437000D01*
X145913000Y-98183000D01*
X145933000Y-98183000D01*
X145933000Y-97066723D01*
X145895874Y-97040000D01*
X145933000Y-97013277D01*
X145933000Y-95897000D01*
X146187000Y-95897000D01*
X146187000Y-97013277D01*
X146224126Y-97040000D01*
X146187000Y-97066723D01*
X146187000Y-98183000D01*
X147529720Y-98183000D01*
X147652220Y-97966930D01*
X147635377Y-97874770D01*
X147367020Y-97396108D01*
X146935914Y-97056578D01*
X146877028Y-97040000D01*
X146935914Y-97023422D01*
X147367020Y-96683892D01*
X147635377Y-96205230D01*
X147652220Y-96113070D01*
X147529720Y-95897000D01*
X146187000Y-95897000D01*
X145933000Y-95897000D01*
X145913000Y-95897000D01*
X145913000Y-95643000D01*
X145933000Y-95643000D01*
X145933000Y-94526723D01*
X145895874Y-94500000D01*
X145933000Y-94473277D01*
X145933000Y-93357000D01*
X146187000Y-93357000D01*
X146187000Y-94473277D01*
X146224126Y-94500000D01*
X146187000Y-94526723D01*
X146187000Y-95643000D01*
X147529720Y-95643000D01*
X147652220Y-95426930D01*
X147635377Y-95334770D01*
X147367020Y-94856108D01*
X146935914Y-94516578D01*
X146877028Y-94500000D01*
X146935914Y-94483422D01*
X147367020Y-94143892D01*
X147635377Y-93665230D01*
X147652220Y-93573070D01*
X147529720Y-93357000D01*
X146187000Y-93357000D01*
X145933000Y-93357000D01*
X145913000Y-93357000D01*
X145913000Y-93103000D01*
X145933000Y-93103000D01*
X145933000Y-91986723D01*
X145895874Y-91960000D01*
X145933000Y-91933277D01*
X145933000Y-90817000D01*
X146187000Y-90817000D01*
X146187000Y-91933277D01*
X146224126Y-91960000D01*
X146187000Y-91986723D01*
X146187000Y-93103000D01*
X147529720Y-93103000D01*
X147652220Y-92886930D01*
X147635377Y-92794770D01*
X147367020Y-92316108D01*
X146935914Y-91976578D01*
X146877028Y-91960000D01*
X146935914Y-91943422D01*
X147367020Y-91603892D01*
X147635377Y-91125230D01*
X147652220Y-91033070D01*
X147529720Y-90817000D01*
X146187000Y-90817000D01*
X145933000Y-90817000D01*
X145913000Y-90817000D01*
X145913000Y-90563000D01*
X145933000Y-90563000D01*
X145933000Y-89446723D01*
X145895874Y-89420000D01*
X145933000Y-89393277D01*
X145933000Y-88277000D01*
X146187000Y-88277000D01*
X146187000Y-89393277D01*
X146224126Y-89420000D01*
X146187000Y-89446723D01*
X146187000Y-90563000D01*
X147529720Y-90563000D01*
X147652220Y-90346930D01*
X147635377Y-90254770D01*
X147367020Y-89776108D01*
X146935914Y-89436578D01*
X146877028Y-89420000D01*
X146935914Y-89403422D01*
X147367020Y-89063892D01*
X147635377Y-88585230D01*
X147652220Y-88493070D01*
X147529720Y-88277000D01*
X146187000Y-88277000D01*
X145933000Y-88277000D01*
X145913000Y-88277000D01*
X145913000Y-88023000D01*
X145933000Y-88023000D01*
X145933000Y-86906723D01*
X145895874Y-86880000D01*
X145933000Y-86853277D01*
X145933000Y-85737000D01*
X146187000Y-85737000D01*
X146187000Y-86853277D01*
X146224126Y-86880000D01*
X146187000Y-86906723D01*
X146187000Y-88023000D01*
X147529720Y-88023000D01*
X147652220Y-87806930D01*
X147635377Y-87714770D01*
X147367020Y-87236108D01*
X146935914Y-86896578D01*
X146877028Y-86880000D01*
X146935914Y-86863422D01*
X147367020Y-86523892D01*
X147635377Y-86045230D01*
X147652220Y-85953070D01*
X147529720Y-85737000D01*
X146187000Y-85737000D01*
X145933000Y-85737000D01*
X145913000Y-85737000D01*
X145913000Y-85483000D01*
X145933000Y-85483000D01*
X145933000Y-84366723D01*
X145895874Y-84340000D01*
X145933000Y-84313277D01*
X145933000Y-83197000D01*
X146187000Y-83197000D01*
X146187000Y-84313277D01*
X146224126Y-84340000D01*
X146187000Y-84366723D01*
X146187000Y-85483000D01*
X147529720Y-85483000D01*
X147652220Y-85266930D01*
X147635377Y-85174770D01*
X147367020Y-84696108D01*
X146935914Y-84356578D01*
X146877028Y-84340000D01*
X146935914Y-84323422D01*
X147367020Y-83983892D01*
X147635377Y-83505230D01*
X147652220Y-83413070D01*
X147529720Y-83197000D01*
X146187000Y-83197000D01*
X145933000Y-83197000D01*
X145913000Y-83197000D01*
X145913000Y-82943000D01*
X145933000Y-82943000D01*
X145933000Y-81826723D01*
X146187000Y-81826723D01*
X146187000Y-82943000D01*
X147529720Y-82943000D01*
X147652220Y-82726930D01*
X147635377Y-82634770D01*
X147367020Y-82156108D01*
X146935914Y-81816578D01*
X146407692Y-81667870D01*
X146187000Y-81826723D01*
X145933000Y-81826723D01*
X145712308Y-81667870D01*
X145184086Y-81816578D01*
X144752980Y-82156108D01*
X144645716Y-82347433D01*
X144590372Y-82264605D01*
X144220853Y-82017701D01*
X143784977Y-81931000D01*
X143255023Y-81931000D01*
X142819147Y-82017701D01*
X142449628Y-82264605D01*
X142202724Y-82634124D01*
X142116023Y-83070000D01*
X132115252Y-83070000D01*
X132358572Y-82826681D01*
X132495355Y-82621970D01*
X132543387Y-82380497D01*
X132543387Y-80530000D01*
X142116023Y-80530000D01*
X142202724Y-80965876D01*
X142449628Y-81335395D01*
X142819147Y-81582299D01*
X143255023Y-81669000D01*
X143784977Y-81669000D01*
X144220853Y-81582299D01*
X144590372Y-81335395D01*
X144790000Y-81036630D01*
X144989628Y-81335395D01*
X145359147Y-81582299D01*
X145795023Y-81669000D01*
X146324977Y-81669000D01*
X146760853Y-81582299D01*
X147130372Y-81335395D01*
X147377276Y-80965876D01*
X147463977Y-80530000D01*
X147377276Y-80094124D01*
X147130372Y-79724605D01*
X146760853Y-79477701D01*
X146324977Y-79391000D01*
X145795023Y-79391000D01*
X145359147Y-79477701D01*
X144989628Y-79724605D01*
X144790000Y-80023370D01*
X144590372Y-79724605D01*
X144220853Y-79477701D01*
X143784977Y-79391000D01*
X143255023Y-79391000D01*
X142819147Y-79477701D01*
X142449628Y-79724605D01*
X142202724Y-80094124D01*
X142116023Y-80530000D01*
X132543387Y-80530000D01*
X132543387Y-77990000D01*
X142116023Y-77990000D01*
X142202724Y-78425876D01*
X142449628Y-78795395D01*
X142819147Y-79042299D01*
X143255023Y-79129000D01*
X143784977Y-79129000D01*
X144220853Y-79042299D01*
X144590372Y-78795395D01*
X144790000Y-78496630D01*
X144989628Y-78795395D01*
X145359147Y-79042299D01*
X145795023Y-79129000D01*
X146324977Y-79129000D01*
X146760853Y-79042299D01*
X147130372Y-78795395D01*
X147377276Y-78425876D01*
X147463977Y-77990000D01*
X147377276Y-77554124D01*
X147130372Y-77184605D01*
X146760853Y-76937701D01*
X146324977Y-76851000D01*
X145795023Y-76851000D01*
X145359147Y-76937701D01*
X144989628Y-77184605D01*
X144790000Y-77483370D01*
X144590372Y-77184605D01*
X144220853Y-76937701D01*
X143784977Y-76851000D01*
X143255023Y-76851000D01*
X142819147Y-76937701D01*
X142449628Y-77184605D01*
X142202724Y-77554124D01*
X142116023Y-77990000D01*
X132543387Y-77990000D01*
X132543387Y-75450000D01*
X142116023Y-75450000D01*
X142202724Y-75885876D01*
X142449628Y-76255395D01*
X142819147Y-76502299D01*
X143255023Y-76589000D01*
X143784977Y-76589000D01*
X144220853Y-76502299D01*
X144590372Y-76255395D01*
X144790000Y-75956630D01*
X144989628Y-76255395D01*
X145359147Y-76502299D01*
X145795023Y-76589000D01*
X146324977Y-76589000D01*
X146760853Y-76502299D01*
X147130372Y-76255395D01*
X147377276Y-75885876D01*
X147463977Y-75450000D01*
X147377276Y-75014124D01*
X147130372Y-74644605D01*
X146760853Y-74397701D01*
X146324977Y-74311000D01*
X145795023Y-74311000D01*
X145359147Y-74397701D01*
X144989628Y-74644605D01*
X144790000Y-74943370D01*
X144590372Y-74644605D01*
X144220853Y-74397701D01*
X143784977Y-74311000D01*
X143255023Y-74311000D01*
X142819147Y-74397701D01*
X142449628Y-74644605D01*
X142202724Y-75014124D01*
X142116023Y-75450000D01*
X132543387Y-75450000D01*
X132543387Y-72910000D01*
X142116023Y-72910000D01*
X142202724Y-73345876D01*
X142449628Y-73715395D01*
X142819147Y-73962299D01*
X143255023Y-74049000D01*
X143784977Y-74049000D01*
X144220853Y-73962299D01*
X144590372Y-73715395D01*
X144790000Y-73416630D01*
X144989628Y-73715395D01*
X145359147Y-73962299D01*
X145795023Y-74049000D01*
X146324977Y-74049000D01*
X146760853Y-73962299D01*
X147130372Y-73715395D01*
X147377276Y-73345876D01*
X147463977Y-72910000D01*
X147377276Y-72474124D01*
X147130372Y-72104605D01*
X146760853Y-71857701D01*
X146324977Y-71771000D01*
X145795023Y-71771000D01*
X145359147Y-71857701D01*
X144989628Y-72104605D01*
X144790000Y-72403370D01*
X144590372Y-72104605D01*
X144220853Y-71857701D01*
X143784977Y-71771000D01*
X143255023Y-71771000D01*
X142819147Y-71857701D01*
X142449628Y-72104605D01*
X142202724Y-72474124D01*
X142116023Y-72910000D01*
X132543387Y-72910000D01*
X132543387Y-70370000D01*
X142116023Y-70370000D01*
X142202724Y-70805876D01*
X142449628Y-71175395D01*
X142819147Y-71422299D01*
X143255023Y-71509000D01*
X143784977Y-71509000D01*
X144220853Y-71422299D01*
X144590372Y-71175395D01*
X144790000Y-70876630D01*
X144989628Y-71175395D01*
X145359147Y-71422299D01*
X145795023Y-71509000D01*
X146324977Y-71509000D01*
X146760853Y-71422299D01*
X147130372Y-71175395D01*
X147377276Y-70805876D01*
X147463977Y-70370000D01*
X147377276Y-69934124D01*
X147130372Y-69564605D01*
X146760853Y-69317701D01*
X146324977Y-69231000D01*
X145795023Y-69231000D01*
X145359147Y-69317701D01*
X144989628Y-69564605D01*
X144790000Y-69863370D01*
X144590372Y-69564605D01*
X144220853Y-69317701D01*
X143784977Y-69231000D01*
X143255023Y-69231000D01*
X142819147Y-69317701D01*
X142449628Y-69564605D01*
X142202724Y-69934124D01*
X142116023Y-70370000D01*
X132543387Y-70370000D01*
X132543387Y-67830000D01*
X142116023Y-67830000D01*
X142202724Y-68265876D01*
X142449628Y-68635395D01*
X142819147Y-68882299D01*
X143255023Y-68969000D01*
X143784977Y-68969000D01*
X144220853Y-68882299D01*
X144590372Y-68635395D01*
X144790000Y-68336630D01*
X144989628Y-68635395D01*
X145359147Y-68882299D01*
X145795023Y-68969000D01*
X146324977Y-68969000D01*
X146760853Y-68882299D01*
X147130372Y-68635395D01*
X147377276Y-68265876D01*
X147463977Y-67830000D01*
X147377276Y-67394124D01*
X147130372Y-67024605D01*
X146760853Y-66777701D01*
X146324977Y-66691000D01*
X145795023Y-66691000D01*
X145359147Y-66777701D01*
X144989628Y-67024605D01*
X144790000Y-67323370D01*
X144590372Y-67024605D01*
X144220853Y-66777701D01*
X143784977Y-66691000D01*
X143255023Y-66691000D01*
X142819147Y-66777701D01*
X142449628Y-67024605D01*
X142202724Y-67394124D01*
X142116023Y-67830000D01*
X132543387Y-67830000D01*
X132543387Y-65290000D01*
X142116023Y-65290000D01*
X142202724Y-65725876D01*
X142449628Y-66095395D01*
X142819147Y-66342299D01*
X143255023Y-66429000D01*
X143784977Y-66429000D01*
X144220853Y-66342299D01*
X144590372Y-66095395D01*
X144790000Y-65796630D01*
X144989628Y-66095395D01*
X145359147Y-66342299D01*
X145795023Y-66429000D01*
X146324977Y-66429000D01*
X146760853Y-66342299D01*
X147130372Y-66095395D01*
X147377276Y-65725876D01*
X147463977Y-65290000D01*
X147377276Y-64854124D01*
X147130372Y-64484605D01*
X146760853Y-64237701D01*
X146324977Y-64151000D01*
X145795023Y-64151000D01*
X145359147Y-64237701D01*
X144989628Y-64484605D01*
X144790000Y-64783370D01*
X144590372Y-64484605D01*
X144220853Y-64237701D01*
X143784977Y-64151000D01*
X143255023Y-64151000D01*
X142819147Y-64237701D01*
X142449628Y-64484605D01*
X142202724Y-64854124D01*
X142116023Y-65290000D01*
X132543387Y-65290000D01*
X132543387Y-62750000D01*
X142116023Y-62750000D01*
X142202724Y-63185876D01*
X142449628Y-63555395D01*
X142819147Y-63802299D01*
X143255023Y-63889000D01*
X143784977Y-63889000D01*
X144220853Y-63802299D01*
X144590372Y-63555395D01*
X144645716Y-63472567D01*
X144752980Y-63663892D01*
X145184086Y-64003422D01*
X145712308Y-64152130D01*
X145933000Y-63993277D01*
X145933000Y-62877000D01*
X146187000Y-62877000D01*
X146187000Y-63993277D01*
X146407692Y-64152130D01*
X146935914Y-64003422D01*
X147367020Y-63663892D01*
X147635377Y-63185230D01*
X147652220Y-63093070D01*
X147529720Y-62877000D01*
X146187000Y-62877000D01*
X145933000Y-62877000D01*
X145913000Y-62877000D01*
X145913000Y-62623000D01*
X145933000Y-62623000D01*
X145933000Y-61506723D01*
X146187000Y-61506723D01*
X146187000Y-62623000D01*
X147529720Y-62623000D01*
X147652220Y-62406930D01*
X147635377Y-62314770D01*
X147367020Y-61836108D01*
X146935914Y-61496578D01*
X146407692Y-61347870D01*
X146187000Y-61506723D01*
X145933000Y-61506723D01*
X145712308Y-61347870D01*
X145184086Y-61496578D01*
X144752980Y-61836108D01*
X144645716Y-62027433D01*
X144590372Y-61944605D01*
X144220853Y-61697701D01*
X143784977Y-61611000D01*
X143255023Y-61611000D01*
X142819147Y-61697701D01*
X142449628Y-61944605D01*
X142202724Y-62314124D01*
X142116023Y-62750000D01*
X132543387Y-62750000D01*
X132543387Y-60625920D01*
X135188308Y-57981000D01*
X144775639Y-57981000D01*
X145413650Y-58619012D01*
X145413650Y-59146860D01*
X145359147Y-59157701D01*
X144989628Y-59404605D01*
X144904385Y-59532181D01*
X144904385Y-59448000D01*
X144878097Y-59308292D01*
X144795530Y-59179980D01*
X144669547Y-59093899D01*
X144520000Y-59063615D01*
X142520000Y-59063615D01*
X142380292Y-59089903D01*
X142251980Y-59172470D01*
X142165899Y-59298453D01*
X142135615Y-59448000D01*
X142135615Y-60972000D01*
X142161903Y-61111708D01*
X142244470Y-61240020D01*
X142370453Y-61326101D01*
X142520000Y-61356385D01*
X144520000Y-61356385D01*
X144659708Y-61330097D01*
X144788020Y-61247530D01*
X144874101Y-61121547D01*
X144904385Y-60972000D01*
X144904385Y-60887819D01*
X144989628Y-61015395D01*
X145359147Y-61262299D01*
X145795023Y-61349000D01*
X146324977Y-61349000D01*
X146760853Y-61262299D01*
X147130372Y-61015395D01*
X147377276Y-60645876D01*
X147463977Y-60210000D01*
X147377276Y-59774124D01*
X147130372Y-59404605D01*
X146760853Y-59157701D01*
X146675650Y-59140753D01*
X146675650Y-58357643D01*
X146627618Y-58116170D01*
X146627618Y-58116169D01*
X146490834Y-57911458D01*
X145483191Y-56903816D01*
X145278480Y-56767032D01*
X145037007Y-56719000D01*
X134926939Y-56719000D01*
X134725528Y-56759063D01*
X134685465Y-56767032D01*
X134480754Y-56903816D01*
X131466203Y-59918368D01*
X131329419Y-60123079D01*
X131281387Y-60364552D01*
X131281387Y-82119128D01*
X130977529Y-82422987D01*
X130819203Y-82422849D01*
X130496753Y-82556082D01*
X130249833Y-82802571D01*
X130116037Y-83124789D01*
X130115733Y-83473681D01*
X87376979Y-83473681D01*
X87377151Y-83276319D01*
X87243918Y-82953869D01*
X86997429Y-82706949D01*
X86675211Y-82573153D01*
X86515382Y-82573014D01*
X86128097Y-82185729D01*
X86128097Y-62213440D01*
X86080065Y-61971967D01*
X85943281Y-61767256D01*
X83939841Y-59763816D01*
X83735130Y-59627032D01*
X83493657Y-59579000D01*
X76126899Y-59579000D01*
X76010372Y-59404605D01*
X75640853Y-59157701D01*
X75204977Y-59071000D01*
X74675023Y-59071000D01*
X74239147Y-59157701D01*
X73869628Y-59404605D01*
X73784385Y-59532181D01*
X73784385Y-59448000D01*
X73758097Y-59308292D01*
X73675530Y-59179980D01*
X73549547Y-59093899D01*
X73400000Y-59063615D01*
X71400000Y-59063615D01*
X71260292Y-59089903D01*
X71131980Y-59172470D01*
X71045899Y-59298453D01*
X71015615Y-59448000D01*
X71015615Y-60972000D01*
X71041903Y-61111708D01*
X71124470Y-61240020D01*
X71250453Y-61326101D01*
X71400000Y-61356385D01*
X72022062Y-61356385D01*
X71524086Y-61496578D01*
X71092980Y-61836108D01*
X70824623Y-62314770D01*
X70807780Y-62406930D01*
X66205200Y-62406930D01*
X66205200Y-54800200D01*
X151094800Y-54800200D01*
X151094800Y-133544800D01*
M02*
